<?xml version="1.0" encoding="UTF-8"?>
<svg id="Layer1" xmlns="http://www.w3.org/2000/svg" width="1920" height="1080" version="1.1" viewBox="0 0 1920 1080">
  <!-- Generator: Adobe Illustrator 30.4.0, SVG Export Plug-In . SVG Version: 2.1.4 Build 226)  -->
  <defs>
    <style>
      .st0 {
        stroke: #333132;
        stroke-width: 2px;
      }

      .st0, .st1 {
        fill: none;
        stroke-linecap: round;
        stroke-linejoin: round;
      }
    </style>
  </defs>
  <g id="LINE">
    <line class="st0" x1="1263.2" y1="670.28" x2="1293.96" y2="661.4"/>
  </g>
  <g id="LINE1" data-name="LINE">
    <line class="st0" x1="1294.32" y1="644.93" x2="1292.19" y2="643.08"/>
  </g>
  <g id="LINE2" data-name="LINE">
    <line class="st0" x1="1228.49" y1="569.46" x2="1228.46" y2="573.62"/>
  </g>
  <g id="LINE3" data-name="LINE">
    <line class="st0" x1="1380.09" y1="636.54" x2="1410.85" y2="627.66"/>
  </g>
  <g id="LINE4" data-name="LINE">
    <line class="st0" x1="1411.21" y1="611.19" x2="1409.08" y2="609.34"/>
  </g>
  <g id="LINE5" data-name="LINE">
    <line class="st0" x1="1283.6" y1="507.15" x2="1234.38" y2="521.36"/>
  </g>
  <g id="LINE6" data-name="LINE">
    <line class="st0" x1="1246.01" y1="541.33" x2="1244.16" y2="537.89"/>
  </g>
  <g id="LINE7" data-name="LINE">
    <line class="st0" x1="1219.86" y1="553.52" x2="1221.7" y2="556.96"/>
  </g>
  <g id="ARC">
    <path class="st0" d="M1363.87,592.28c-.22-1.95-1.98-3.35-3.93-3.13-.17.02-.33.05-.49.09"/>
  </g>
  <g id="LINE8" data-name="LINE">
    <line class="st0" x1="1359.45" y1="589.24" x2="1280.7" y2="611.97"/>
  </g>
  <g id="ARC1" data-name="ARC">
    <path class="st0" d="M1280.7,611.97c-2.14.74-3.4,2.95-2.96,5.17"/>
  </g>
  <g id="LINE9" data-name="LINE">
    <line class="st0" x1="1277.74" y1="617.14" x2="1282.62" y2="644.57"/>
  </g>
  <g id="LINE10" data-name="LINE">
    <line class="st0" x1="1253.3" y1="661.55" x2="1239.64" y2="584.75"/>
  </g>
  <g id="LINE11" data-name="LINE">
    <line class="st0" x1="1387.29" y1="542.13" x2="1399.51" y2="610.83"/>
  </g>
  <g id="LINE12" data-name="LINE">
    <line class="st0" x1="1370.19" y1="627.81" x2="1363.87" y2="592.28"/>
  </g>
  <g id="LINE13" data-name="LINE">
    <line class="st0" x1="1251.3" y1="661.08" x2="1237.64" y2="584.28"/>
  </g>
  <g id="LINE14" data-name="LINE">
    <line class="st0" x1="1264.47" y1="655.97" x2="1264.47" y2="667.28"/>
  </g>
  <g id="ARC2" data-name="ARC">
    <path class="st0" d="M1268.16,651.21c-2.11.65-3.58,2.55-3.69,4.76"/>
  </g>
  <g id="LINE15" data-name="LINE">
    <line class="st0" x1="1291.53" y1="644.46" x2="1268.16" y2="651.21"/>
  </g>
  <g id="ARC3" data-name="ARC">
    <path class="st0" d="M1295.23,647.09c.06-1.49-1.11-2.75-2.6-2.81-.37-.01-.74.05-1.09.18"/>
  </g>
  <g id="LINE16" data-name="LINE">
    <line class="st0" x1="1295.23" y1="658.4" x2="1295.23" y2="647.09"/>
  </g>
  <g id="ARC4" data-name="ARC">
    <path class="st0" d="M1266.03,649.36c-2.11.65-3.58,2.55-3.69,4.76"/>
  </g>
  <g id="LINE17" data-name="LINE">
    <line class="st0" x1="1289.4" y1="642.61" x2="1266.03" y2="649.36"/>
  </g>
  <g id="LINE18" data-name="LINE">
    <line class="st0" x1="1262.33" y1="654.12" x2="1262.33" y2="665.44"/>
  </g>
  <g id="LWPOLYLINE">
    <polyline class="st0" points="1262.6 670.29 1262.99 670.32 1263.35 670.23 1263.68 670 1263.95 669.66 1264.17 669.21 1264.33 668.65 1264.43 668 1264.47 667.28"/>
  </g>
  <g id="LWPOLYLINE1" data-name="LWPOLYLINE">
    <polyline class="st0" points="1295.23 658.4 1295.19 659.12 1295.09 659.77 1294.93 660.33 1294.71 660.78 1294.44 661.12 1294.11 661.35 1293.96 661.4"/>
  </g>
  <g id="LWPOLYLINE2" data-name="LWPOLYLINE">
    <polyline class="st0" points="1261.87 666.19 1261.97 666.2 1262.06 666.17 1262.14 666.12 1262.21 666.03 1262.26 665.92 1262.3 665.78 1262.33 665.62 1262.33 665.44"/>
  </g>
  <g id="ARC5" data-name="ARC">
    <path class="st0" d="M1387.29,542.13c-.29-2.08-1.22-4.02-2.67-5.55"/>
  </g>
  <g id="ARC6" data-name="ARC">
    <path class="st0" d="M1239.64,584.75c-.29-2.08-1.22-4.02-2.67-5.55"/>
  </g>
  <g id="ARC7" data-name="ARC">
    <path class="st0" d="M1237.64,584.28c-.07-.52-.31-1.01-.67-1.39"/>
  </g>
  <g id="LINE19" data-name="LINE">
    <line class="st0" x1="1262.6" y1="670.29" x2="1255.85" y2="668.7"/>
  </g>
  <g id="LINE20" data-name="LINE">
    <line class="st0" x1="1261.87" y1="666.19" x2="1255.12" y2="664.6"/>
  </g>
  <g id="LINE21" data-name="LINE">
    <line class="st0" x1="1285.96" y1="507.96" x2="1314.59" y2="532.76"/>
  </g>
  <g id="LWPOLYLINE3" data-name="LWPOLYLINE">
    <polyline class="st0" points="1334 535.36 1331.46 535.93 1328.75 536.25 1325.97 536.29 1323.22 536.07 1320.61 535.58 1318.25 534.84 1316.22 533.89 1314.59 532.76"/>
  </g>
  <g id="LINE22" data-name="LINE">
    <line class="st0" x1="1334" y1="535.36" x2="1358.61" y2="528.25"/>
  </g>
  <g id="LWPOLYLINE4" data-name="LWPOLYLINE">
    <polyline class="st0" points="1378.02 530.85 1376.4 529.72 1374.36 528.77 1372 528.03 1369.39 527.54 1366.64 527.32 1363.86 527.36 1361.15 527.68 1358.61 528.25"/>
  </g>
  <g id="LINE23" data-name="LINE">
    <line class="st0" x1="1378.02" y1="530.85" x2="1384.62" y2="536.58"/>
  </g>
  <g id="LINE24" data-name="LINE">
    <line class="st0" x1="1236.97" y1="579.2" x2="1230.37" y2="573.48"/>
  </g>
  <g id="LWPOLYLINE5" data-name="LWPOLYLINE">
    <polyline class="st0" points="1235.57 563.77 1233.3 564.58 1231.4 565.6 1229.93 566.78 1228.95 568.09 1228.49 569.46 1228.59 570.85 1229.22 572.21 1230.37 573.48"/>
  </g>
  <g id="LINE25" data-name="LINE">
    <line class="st0" x1="1235.57" y1="563.77" x2="1260.18" y2="556.67"/>
  </g>
  <g id="LWPOLYLINE6" data-name="LWPOLYLINE">
    <polyline class="st0" points="1265.38 546.97 1266.53 548.23 1267.16 549.59 1267.25 550.98 1266.8 552.36 1265.82 553.66 1264.34 554.84 1262.44 555.86 1260.18 556.67"/>
  </g>
  <g id="LINE26" data-name="LINE">
    <line class="st0" x1="1265.38" y1="546.97" x2="1236.75" y2="522.17"/>
  </g>
  <g id="LINE27" data-name="LINE">
    <line class="st0" x1="1236.97" y1="582.89" x2="1230.37" y2="577.17"/>
  </g>
  <g id="ARC8" data-name="ARC">
    <path class="st0" d="M1292.19,643.08c-.79-.63-1.84-.81-2.79-.47"/>
  </g>
  <g id="ARC9" data-name="ARC">
    <path class="st0" d="M1228.46,573.62c.07,1.41.77,2.71,1.9,3.55"/>
  </g>
  <g id="LWPOLYLINE7" data-name="LWPOLYLINE">
    <polyline class="st0" points="1251.3 661.08 1251.6 662.43 1252.02 663.76 1252.53 665.01 1253.13 666.14 1253.79 667.11 1254.48 667.88 1255.17 668.42 1255.85 668.7"/>
  </g>
  <g id="ARC10" data-name="ARC">
    <path class="st0" d="M1253.3,661.55c.08,1.25.76,2.38,1.82,3.05"/>
  </g>
  <g id="LWPOLYLINE8" data-name="LWPOLYLINE">
    <polyline class="st0" points="1266.79 552.36 1266.53 551.92 1265.38 550.66"/>
  </g>
  <g id="LWPOLYLINE9" data-name="LWPOLYLINE">
    <polyline class="st0" points="1379.49 636.55 1379.88 636.58 1380.24 636.48 1380.57 636.26 1380.84 635.92 1381.06 635.46 1381.22 634.91 1381.32 634.26 1381.35 633.54"/>
  </g>
  <g id="LINE28" data-name="LINE">
    <line class="st0" x1="1379.49" y1="636.55" x2="1372.74" y2="634.96"/>
  </g>
  <g id="LWPOLYLINE10" data-name="LWPOLYLINE">
    <polyline class="st0" points="1368.19 627.34 1368.49 628.69 1368.9 630.01 1369.42 631.27 1370.02 632.4 1370.68 633.37 1371.37 634.14 1372.06 634.67 1372.74 634.96"/>
  </g>
  <g id="ARC11" data-name="ARC">
    <path class="st0" d="M1370.19,627.81c.08,1.25.76,2.38,1.82,3.05"/>
  </g>
  <g id="LINE29" data-name="LINE">
    <line class="st0" x1="1378.76" y1="632.45" x2="1372.01" y2="630.86"/>
  </g>
  <g id="LWPOLYLINE11" data-name="LWPOLYLINE">
    <polyline class="st0" points="1378.76 632.45 1378.86 632.45 1378.95 632.43 1379.03 632.38 1379.1 632.29 1379.15 632.18 1379.19 632.04 1379.22 631.88 1379.22 631.7"/>
  </g>
  <g id="LINE30" data-name="LINE">
    <line class="st0" x1="1379.22" y1="620.38" x2="1379.22" y2="631.7"/>
  </g>
  <g id="LINE31" data-name="LINE">
    <line class="st0" x1="1381.35" y1="622.22" x2="1381.35" y2="633.54"/>
  </g>
  <g id="LINE32" data-name="LINE">
    <line class="st0" x1="1368.19" y1="627.34" x2="1361.87" y2="591.81"/>
  </g>
  <g id="ARC12" data-name="ARC">
    <path class="st0" d="M1385.05,617.47c-2.11.65-3.58,2.55-3.69,4.76"/>
  </g>
  <g id="ARC13" data-name="ARC">
    <path class="st0" d="M1382.91,615.62c-2.11.65-3.58,2.55-3.69,4.76"/>
  </g>
  <g id="ARC14" data-name="ARC">
    <path class="st0" d="M1412.12,613.34c.06-1.49-1.11-2.75-2.6-2.81-.37-.01-.74.05-1.09.18"/>
  </g>
  <g id="LINE33" data-name="LINE">
    <line class="st0" x1="1412.12" y1="624.66" x2="1412.12" y2="613.34"/>
  </g>
  <g id="LINE34" data-name="LINE">
    <line class="st0" x1="1408.42" y1="610.72" x2="1385.05" y2="617.47"/>
  </g>
  <g id="LINE35" data-name="LINE">
    <line class="st0" x1="1406.29" y1="608.87" x2="1382.91" y2="615.62"/>
  </g>
  <g id="LWPOLYLINE12" data-name="LWPOLYLINE">
    <polyline class="st0" points="1412.12 624.66 1412.08 625.38 1411.98 626.03 1411.82 626.58 1411.6 627.04 1411.33 627.38 1411 627.6 1410.85 627.66"/>
  </g>
  <g id="LINE36" data-name="LINE">
    <line class="st0" x1="1265.38" y1="550.66" x2="1236.75" y2="525.86"/>
  </g>
  <g id="ARC15" data-name="ARC">
    <path class="st0" d="M1409.08,609.34c-.79-.63-1.84-.81-2.79-.47"/>
  </g>
  <g id="ARC16" data-name="ARC">
    <path class="st0" d="M1361.87,591.81c-.17-1.11-.8-2.09-1.75-2.69"/>
  </g>
  <g id="LWPOLYLINE13" data-name="LWPOLYLINE">
    <polyline class="st0" points="1236.75 522.17 1236.19 521.75 1235.64 521.47 1235.11 521.32 1234.61 521.31 1234.15 521.45 1233.73 521.72 1233.36 522.13 1233.05 522.66"/>
  </g>
  <g id="ARC17" data-name="ARC">
    <path class="st0" d="M1285.96,507.96c-.6-.65-1.49-.95-2.36-.81"/>
  </g>
  <g id="LWPOLYLINE14" data-name="LWPOLYLINE">
    <polyline class="st0" points="1236.75 525.86 1236.47 525.65 1236.19 525.51 1235.93 525.44 1235.68 525.43 1235.45 525.5 1235.24 525.64 1235.05 525.84 1234.9 526.11"/>
  </g>
  <g id="LINE37" data-name="LINE">
    <line class="st0" x1="1221.92" y1="553.8" x2="1234.9" y2="526.11"/>
  </g>
  <g id="LINE38" data-name="LINE">
    <line class="st0" x1="1220.08" y1="550.36" x2="1233.05" y2="522.66"/>
  </g>
  <g id="LWPOLYLINE15" data-name="LWPOLYLINE">
    <polyline class="st0" points="1221.92 553.8 1221.47 555.21 1221.5 556.43 1222.02 557.41 1223.02 558.12 1224.44 558.53 1226.24 558.61 1228.34 558.38 1230.68 557.83"/>
  </g>
  <g id="ARC18" data-name="ARC">
    <path class="st0" d="M1255.28,550.73c2.38-.71,4.67-1.68,6.82-2.9"/>
  </g>
  <g id="LINE39" data-name="LINE">
    <line class="st0" x1="1255.28" y1="550.73" x2="1230.68" y2="557.83"/>
  </g>
  <g id="LINE40" data-name="LINE">
    <line class="st0" x1="1243.08" y1="531.35" x2="1238.84" y2="540.4"/>
  </g>
  <g id="LWPOLYLINE16" data-name="LWPOLYLINE">
    <polyline class="st0" points="1241.47 541.6 1240.77 541.77 1240.14 541.84 1239.6 541.81 1239.17 541.69 1238.87 541.48 1238.72 541.19 1238.71 540.82 1238.84 540.4"/>
  </g>
  <g id="LINE41" data-name="LINE">
    <line class="st0" x1="1243.32" y1="541.07" x2="1241.47" y2="541.6"/>
  </g>
  <g id="LWPOLYLINE17" data-name="LWPOLYLINE">
    <polyline class="st0" points="1245.94 542.28 1246.08 541.86 1246.07 541.49 1245.91 541.2 1245.61 540.98 1245.19 540.86 1244.65 540.84 1244.02 540.91 1243.32 541.07"/>
  </g>
  <g id="LINE42" data-name="LINE">
    <line class="st0" x1="1245.94" y1="542.28" x2="1244.17" y2="546.07"/>
  </g>
  <g id="LWPOLYLINE18" data-name="LWPOLYLINE">
    <polyline class="st0" points="1245.92 546.88 1245.45 546.98 1245.03 547.03 1244.67 547.01 1244.38 546.93 1244.19 546.79 1244.08 546.6 1244.07 546.35 1244.17 546.07"/>
  </g>
  <g id="LINE43" data-name="LINE">
    <line class="st0" x1="1245.92" y1="546.88" x2="1247.15" y2="546.52"/>
  </g>
  <g id="ARC19" data-name="ARC">
    <path class="st0" d="M1247.15,546.52c1.29-.33,2.42-1.12,3.17-2.23"/>
  </g>
  <g id="LINE44" data-name="LINE">
    <line class="st0" x1="1252.09" y1="540.5" x2="1250.32" y2="544.29"/>
  </g>
  <g id="LWPOLYLINE19" data-name="LWPOLYLINE">
    <polyline class="st0" points="1252.68 539.66 1252.37 540.04 1252.09 540.5"/>
  </g>
  <g id="LINE45" data-name="LINE">
    <line class="st0" x1="1239.93" y1="538.07" x2="1241.47" y2="537.63"/>
  </g>
  <g id="LWPOLYLINE20" data-name="LWPOLYLINE">
    <polyline class="st0" points="1241.47 537.63 1242.17 537.46 1242.8 537.39 1243.34 537.42 1243.77 537.54 1244.07 537.75 1244.16 537.89"/>
  </g>
  <g id="ARC20" data-name="ARC">
    <path class="st0" d="M1220.08,550.36c-.59.95-.67,2.13-.22,3.16"/>
  </g>
  <g id="LINE46" data-name="LINE">
    <line class="st0" x1="1248.47" y1="540.85" x2="1250.08" y2="537.41"/>
  </g>
  <g id="ARC21" data-name="ARC">
    <path class="st0" d="M1245.62,542.97c1.17-.36,2.17-1.11,2.86-2.12"/>
  </g>
  <g id="LWPOLYLINE21" data-name="LWPOLYLINE">
    <polyline class="st1" points="1275.51 522.71 1274.48 522.1 1273.09 521.7 1271.52 521.56 1269.94 521.7 1268.55 522.1 1267.52 522.71 1266.97 523.47 1266.97 524.27 1267.52 525.02"/>
  </g>
  <g id="LINE47" data-name="LINE">
    <line class="st1" x1="1267.52" y1="525.02" x2="1281.72" y2="537.32"/>
  </g>
  <g id="LWPOLYLINE22" data-name="LWPOLYLINE">
    <polyline class="st1" points="1289.72 535.02 1290.27 535.77 1290.27 536.57 1289.72 537.32 1288.69 537.94 1287.3 538.34 1285.72 538.48 1284.14 538.34 1282.75 537.94 1281.72 537.32"/>
  </g>
  <g id="LINE48" data-name="LINE">
    <line class="st1" x1="1289.72" y1="535.02" x2="1275.51" y2="522.71"/>
  </g>
</svg>