<?xml version="1.0" encoding="UTF-8"?>
<svg id="Layer1" xmlns="http://www.w3.org/2000/svg" width="1920" height="1080" version="1.1" viewBox="0 0 1920 1080">
  <!-- Generator: Adobe Illustrator 30.4.0, SVG Export Plug-In . SVG Version: 2.1.4 Build 226)  -->
  <defs>
    <style>
      .st0 {
        stroke: #333132;
        stroke-width: 2px;
      }

      .st0, .st1 {
        fill: none;
        stroke-linecap: round;
        stroke-linejoin: round;
      }
    </style>
  </defs>
  <g id="LINE">
    <line class="st0" x1="1041.84" y1="132.93" x2="1005.61" y2="101.56"/>
  </g>
  <g id="LINE1" data-name="LINE">
    <line class="st0" x1="1012.54" y1="154.16" x2="1037.15" y2="147.06"/>
  </g>
  <g id="LINE2" data-name="LINE">
    <line class="st0" x1="1037.52" y1="130.88" x2="1035.38" y2="129.04"/>
  </g>
  <g id="LINE3" data-name="LINE">
    <line class="st0" x1="1052" y1="454.71" x2="1052" y2="451.02"/>
  </g>
  <g id="LINE4" data-name="LINE">
    <line class="st0" x1="927.84" y1="438.83" x2="929.97" y2="440.68"/>
  </g>
  <g id="LINE5" data-name="LINE">
    <line class="st0" x1="1042.74" y1="145.27" x2="1042.74" y2="135.09"/>
  </g>
  <g id="LINE6" data-name="LINE">
    <line class="st0" x1="1037.67" y1="146.74" x2="1042.74" y2="145.27"/>
  </g>
  <g id="LINE7" data-name="LINE">
    <line class="st0" x1="1011.06" y1="150.73" x2="1011.68" y2="150.55"/>
  </g>
  <g id="LINE8" data-name="LINE">
    <line class="st0" x1="1011.06" y1="154.42" x2="1011.06" y2="150.73"/>
  </g>
  <g id="LINE9" data-name="LINE">
    <line class="st0" x1="1005.22" y1="156.1" x2="1011.06" y2="154.42"/>
  </g>
  <g id="LINE10" data-name="LINE">
    <line class="st0" x1="1005.22" y1="145.92" x2="1005.22" y2="156.1"/>
  </g>
  <g id="ARC">
    <path class="st0" d="M1006.85,142.39c-.99.91-1.58,2.19-1.64,3.54"/>
  </g>
  <g id="LWPOLYLINE">
    <polyline class="st0" points="1041.11 132.5 1038.27 131.63 1038.07 131.58"/>
  </g>
  <g id="LWPOLYLINE1" data-name="LWPOLYLINE">
    <polyline class="st0" points="1011.68 138.35 1009.69 139.88 1006.85 142.39"/>
  </g>
  <g id="ARC1" data-name="ARC">
    <path class="st0" d="M1042.74,135.09c.06-1.12-.59-2.17-1.64-2.59"/>
  </g>
  <g id="LWPOLYLINE2" data-name="LWPOLYLINE">
    <polyline class="st0" points="1004.88 101.12 1002.04 100.25 999.04 99.74 995.91 99.6 992.68 99.83 989.4 100.42 986.1 101.38 982.82 102.68 979.59 104.31 976.46 106.26 973.46 108.5 970.62 111.01"/>
  </g>
  <g id="ARC2" data-name="ARC">
    <path class="st0" d="M970.62,111.01c-.99.91-1.58,2.19-1.64,3.54"/>
  </g>
  <g id="LINE11" data-name="LINE">
    <line class="st0" x1="968.99" y1="114.55" x2="968.99" y2="124.73"/>
  </g>
  <g id="LINE12" data-name="LINE">
    <line class="st0" x1="1005.22" y1="156.1" x2="968.99" y2="124.73"/>
  </g>
  <g id="ARC3" data-name="ARC">
    <path class="st0" d="M1005.61,101.56c-.22-.19-.47-.34-.73-.44"/>
  </g>
  <g id="ARC4" data-name="ARC">
    <path class="st0" d="M1038.42,133.04c.09-1.44-1.01-2.68-2.45-2.77-.06,0-.11,0-.17,0"/>
  </g>
  <g id="LINE13" data-name="LINE">
    <line class="st0" x1="1038.42" y1="144.06" x2="1038.42" y2="133.04"/>
  </g>
  <g id="LINE14" data-name="LINE">
    <line class="st0" x1="1013.81" y1="140.14" x2="1013.81" y2="151.16"/>
  </g>
  <g id="ARC5" data-name="ARC">
    <path class="st0" d="M1016.42,135.86c-1.54.89-2.53,2.51-2.61,4.29"/>
  </g>
  <g id="ARC6" data-name="ARC">
    <path class="st0" d="M1035.8,130.26c-6.85.05-13.56,1.98-19.38,5.59"/>
  </g>
  <g id="ARC7" data-name="ARC">
    <path class="st0" d="M1014.29,134.01c-1.54.89-2.53,2.51-2.61,4.29"/>
  </g>
  <g id="ARC8" data-name="ARC">
    <path class="st0" d="M1033.67,128.42c-6.85.05-13.56,1.98-19.38,5.59"/>
  </g>
  <g id="LINE15" data-name="LINE">
    <line class="st0" x1="1011.68" y1="138.3" x2="1011.68" y2="150.55"/>
  </g>
  <g id="LWPOLYLINE3" data-name="LWPOLYLINE">
    <polyline class="st0" points="1011.06 153.7 1011.52 154.01 1012.05 154.19 1012.54 154.16 1012.98 153.92 1013.33 153.48 1013.59 152.86 1013.75 152.08 1013.81 151.16"/>
  </g>
  <g id="LWPOLYLINE4" data-name="LWPOLYLINE">
    <polyline class="st0" points="1038.42 144.06 1038.36 144.97 1038.2 145.76 1037.94 146.38 1037.58 146.82 1037.15 147.06 1037.15 147.06"/>
  </g>
  <g id="ARC9" data-name="ARC">
    <path class="st0" d="M1035.38,129.04c-.48-.4-1.09-.62-1.71-.62"/>
  </g>
  <g id="LINE16" data-name="LINE">
    <line class="st0" x1="953.31" y1="417.99" x2="1027.88" y2="396.47"/>
  </g>
  <g id="ARC10" data-name="ARC">
    <path class="st0" d="M1027.88,396.47c2.34-.69,3.87-2.95,3.63-5.38"/>
  </g>
  <g id="LINE17" data-name="LINE">
    <line class="st0" x1="1031.51" y1="391.08" x2="994.23" y2="191.17"/>
  </g>
  <g id="LWPOLYLINE5" data-name="LWPOLYLINE">
    <polyline class="st0" points="994.23 191.17 993.86 190.2 993.18 189.49 992.25 189.09 991.16 189.06 990.02 189.38 988.94 190.05 988.01 190.98 987.33 192.09 986.96 193.27"/>
  </g>
  <g id="LINE18" data-name="LINE">
    <line class="st0" x1="986.96" y1="193.27" x2="949.67" y2="414.71"/>
  </g>
  <g id="ARC11" data-name="ARC">
    <path class="st0" d="M949.67,414.71c-.39,1.47.49,2.98,1.96,3.37.55.15,1.14.12,1.67-.08"/>
  </g>
  <g id="ARC12" data-name="ARC">
    <path class="st0" d="M1048.42,407.76c2.11-.65,3.58-2.55,3.69-4.76"/>
  </g>
  <g id="LINE19" data-name="LINE">
    <line class="st0" x1="1015.2" y1="417.35" x2="1048.42" y2="407.76"/>
  </g>
  <g id="LINE20" data-name="LINE">
    <line class="st0" x1="965.98" y1="431.56" x2="932.76" y2="441.15"/>
  </g>
  <g id="ARC13" data-name="ARC">
    <path class="st0" d="M929.07,438.52c-.06,1.49,1.11,2.75,2.6,2.81.37.01.74-.05,1.09-.18"/>
  </g>
  <g id="LINE21" data-name="LINE">
    <line class="st0" x1="929.07" y1="438.52" x2="929.07" y2="436.54"/>
  </g>
  <g id="ARC14" data-name="ARC">
    <path class="st0" d="M930.01,425.55c-.62,3.63-.93,7.31-.94,10.99"/>
  </g>
  <g id="LINE22" data-name="LINE">
    <line class="st0" x1="930.01" y1="425.55" x2="978.29" y2="138.86"/>
  </g>
  <g id="LINE23" data-name="LINE">
    <line class="st0" x1="978.29" y1="138.86" x2="978.29" y2="132.78"/>
  </g>
  <g id="LINE24" data-name="LINE">
    <line class="st0" x1="1007.33" y1="155.5" x2="1051.17" y2="390.57"/>
  </g>
  <g id="ARC15" data-name="ARC">
    <path class="st0" d="M1052.11,401.02c0-3.5-.31-7-.94-10.45"/>
  </g>
  <g id="LINE25" data-name="LINE">
    <line class="st0" x1="1052.11" y1="401.02" x2="1052.11" y2="403"/>
  </g>
  <g id="LINE26" data-name="LINE">
    <line class="st0" x1="976.16" y1="137.01" x2="927.88" y2="423.7"/>
  </g>
  <g id="LINE27" data-name="LINE">
    <line class="st0" x1="976.16" y1="130.94" x2="976.16" y2="137.01"/>
  </g>
  <g id="LINE28" data-name="LINE">
    <line class="st0" x1="994.23" y1="191.17" x2="992.1" y2="189.33"/>
  </g>
  <g id="LINE29" data-name="LINE">
    <line class="st0" x1="992.03" y1="189.05" x2="992.1" y2="189.33"/>
  </g>
  <g id="LINE30" data-name="LINE">
    <line class="st0" x1="992.1" y1="189.33" x2="1029.38" y2="389.24"/>
  </g>
  <g id="ARC16" data-name="ARC">
    <path class="st0" d="M1002.21,467.86c1.73,1.12,3.86,1.4,5.82.78"/>
  </g>
  <g id="ARC17" data-name="ARC">
    <path class="st0" d="M1002.21,464.17c1.73,1.12,3.86,1.4,5.82.78"/>
  </g>
  <g id="LINE31" data-name="LINE">
    <line class="st0" x1="1051.43" y1="449.96" x2="1015.91" y2="419.2"/>
  </g>
  <g id="LWPOLYLINE6" data-name="LWPOLYLINE">
    <polyline class="st0" points="1051.43 449.96 1051.78 450.34 1051.97 450.74 1051.99 451.16 1051.86 451.57 1051.56 451.97 1051.12 452.32 1050.55 452.63 1049.87 452.87"/>
  </g>
  <g id="LINE32" data-name="LINE">
    <line class="st0" x1="1049.87" y1="452.87" x2="1008.04" y2="464.95"/>
  </g>
  <g id="LINE33" data-name="LINE">
    <line class="st0" x1="1002.21" y1="464.17" x2="966.69" y2="433.4"/>
  </g>
  <g id="LINE34" data-name="LINE">
    <line class="st0" x1="1049.87" y1="456.56" x2="1008.04" y2="468.64"/>
  </g>
  <g id="ARC18" data-name="ARC">
    <path class="st0" d="M965.98,431.56c0,.68.25,1.34.71,1.85"/>
  </g>
  <g id="ARC19" data-name="ARC">
    <path class="st0" d="M964.13,432.09c.34,1.88,1.24,3.62,2.56,5"/>
  </g>
  <g id="LINE35" data-name="LINE">
    <line class="st0" x1="1002.21" y1="467.86" x2="966.69" y2="437.1"/>
  </g>
  <g id="LWPOLYLINE7" data-name="LWPOLYLINE">
    <polyline class="st0" points="1052 454.71 1051.99 454.85 1051.86 455.27 1051.56 455.66 1051.12 456.01 1050.55 456.32 1049.87 456.56"/>
  </g>
  <g id="ARC20" data-name="ARC">
    <path class="st0" d="M927.88,423.7c-.62,3.63-.93,7.31-.94,10.99"/>
  </g>
  <g id="LINE36" data-name="LINE">
    <line class="st0" x1="926.94" y1="434.7" x2="926.94" y2="436.68"/>
  </g>
  <g id="LWPOLYLINE8" data-name="LWPOLYLINE">
    <polyline class="st0" points="951.17 416.15 950.38 416.29 949.74 416.27"/>
  </g>
  <g id="ARC21" data-name="ARC">
    <path class="st0" d="M926.94,436.68c-.03.82.3,1.61.9,2.16"/>
  </g>
  <g id="LINE37" data-name="LINE">
    <line class="st0" x1="1025.75" y1="394.62" x2="951.17" y2="416.15"/>
  </g>
  <g id="ARC22" data-name="ARC">
    <path class="st0" d="M1015.2,417.35c0,.68.25,1.34.71,1.85"/>
  </g>
  <g id="ARC23" data-name="ARC">
    <path class="st0" d="M1025.75,394.62c2.34-.69,3.87-2.95,3.63-5.38"/>
  </g>
  <g id="LWPOLYLINE9" data-name="LWPOLYLINE">
    <polyline class="st1" points="1026.38 452.06 1026.87 452.67 1026.99 453.33 1026.75 453.97 1026.14 454.56 1025.24 455.03 1024.1 455.36 1022.82 455.51 1021.51 455.48 1020.27 455.27 1019.2 454.89 1018.38 454.37"/>
  </g>
  <g id="LINE38" data-name="LINE">
    <line class="st1" x1="1013.77" y1="441.14" x2="1026.38" y2="452.06"/>
  </g>
  <g id="LWPOLYLINE10" data-name="LWPOLYLINE">
    <polyline class="st1" points="1013.77 441.14 1012.96 440.63 1011.89 440.24 1010.65 440.03 1009.33 440 1008.06 440.15 1006.92 440.48 1006.01 440.96 1005.41 441.54 1005.16 442.19 1005.29 442.84 1005.77 443.45"/>
  </g>
  <g id="LINE39" data-name="LINE">
    <line class="st1" x1="1018.38" y1="454.37" x2="1005.77" y2="443.45"/>
  </g>
</svg>