<?xml version="1.0" encoding="UTF-8"?>
<svg id="Layer1" xmlns="http://www.w3.org/2000/svg" width="509.76" height="447.26" version="1.1" viewBox="0 0 509.76 447.26">
  <!-- Generator: Adobe Illustrator 30.5.1, SVG Export Plug-In . SVG Version: 2.1.4 Build 3)  -->
  <defs>
    <style>
      .st0 {
        stroke: #333132;
        stroke-linecap: round;
        stroke-linejoin: round;
        stroke-width: 2px;
      }

      .st0, .st1 {
        fill: none;
      }

      .st2 {
        fill: #f0ebe3;
        fill-opacity: .5;
      }
    </style>
  </defs>
  <polygon class="st2" points="2.34 165.42 11.33 150.35 26.47 141.08 46.4 137.36 54.62 138.86 36.54 83.61 39.36 78.32 51.94 72.98 64.83 69.81 88.26 125.2 92.43 123.26 280.25 67.68 291.39 67.88 275.69 13.63 276.63 7.71 301.92 1.01 326.9 57.95 332.95 53.53 344.22 48.37 361.35 46.83 381.03 50.71 395.84 61.06 402.07 70.41 499.65 290.95 508.9 327.89 508.83 330.56 456.39 346.46 454.13 355.68 430.21 362.63 424.55 363.44 416.64 354.77 412.59 357.57 214.75 414.58 215.24 424.3 188.02 433.05 178.19 417.1 170.79 408.81 175.7 424.57 112.59 443.76 98.53 429.3 99.28 418.97 103.53 414.36 103.22 405.95 100.67 406.76 1.77 180.17 2.34 165.42"/>
  <g id="LINE">
    <line class="st0" x1="446.19" y1="313.66" x2="419.7" y2="321.37"/>
  </g>
  <g id="LINE1">
    <line class="st0" x1="426.12" y1="364.29" x2="452.62" y2="356.58"/>
  </g>
  <g id="LINE2">
    <line class="st0" x1="301.38" y1="1.01" x2="274.88" y2="8.72"/>
  </g>
  <g id="LINE3">
    <line class="st0" x1="207.74" y1="383.08" x2="181.25" y2="390.8"/>
  </g>
  <g id="LINE4">
    <line class="st0" x1="187.66" y1="433.72" x2="214.16" y2="426.01"/>
  </g>
  <g id="LINE5">
    <line class="st0" x1="62.92" y1="70.45" x2="36.43" y2="78.16"/>
  </g>
  <g id="LINE6">
    <line class="st0" x1="110.87" y1="446.26" x2="175.79" y2="427.36"/>
  </g>
  <g id="LINE7">
    <line class="st0" x1="215.58" y1="415.77" x2="414.24" y2="357.93"/>
  </g>
  <g id="LINE8">
    <line class="st0" x1="98.96" y1="425.29" x2="99.48" y2="428.96"/>
  </g>
  <g id="LINE9">
    <line class="st0" x1="454.04" y1="346.35" x2="508.3" y2="330.55"/>
  </g>
  <g id="LINE10">
    <line class="st0" x1="1.49" y1="170.37" x2="1.22" y2="172.6"/>
  </g>
  <g id="LINE11">
    <line class="st0" x1="424.42" y1="332.05" x2="427.42" y2="353.15"/>
  </g>
  <g id="LWPOLYLINE">
    <polyline class="st0" points="427.42 353.15 427.74 355.95 427.87 358.45 427.79 360.57 427.52 362.26 427.06 363.46 426.42 364.16 425.61 364.34 424.67 363.97 423.62 363.09 422.46 361.71 421.25 359.87 420.02 357.61 418.78 354.99"/>
  </g>
  <g id="LINE12">
    <line class="st0" x1="418.78" y1="354.99" x2="407.33" y2="328.98"/>
  </g>
  <g id="LINE13">
    <line class="st0" x1="377.16" y1="257.18" x2="377.48" y2="254.53"/>
  </g>
  <g id="LINE14">
    <line class="st0" x1="377.48" y1="254.53" x2="318.85" y2="121.39"/>
  </g>
  <g id="ARC">
    <path class="st0" d="M287.32,54.01c1.98,5.87,4.19,11.67,6.6,17.38"/>
  </g>
  <g id="LINE15">
    <line class="st0" x1="287.32" y1="54.01" x2="276.19" y2="21.27"/>
  </g>
  <g id="ARC1">
    <path class="st0" d="M274.38,10.84c-.07,3.56.54,7.1,1.8,10.43"/>
  </g>
  <g id="LINE16">
    <line class="st0" x1="274.56" y1="9.38" x2="274.38" y2="10.84"/>
  </g>
  <g id="LWPOLYLINE1">
    <polyline class="st0" points="274.56 9.38 274.65 9.01 274.78 8.79 274.97 8.72 275.2 8.81 275.46 9.06 275.75 9.44 276.05 9.96 276.35 10.59"/>
  </g>
  <g id="LINE17">
    <line class="st0" x1="276.35" y1="10.59" x2="416.58" y2="329.01"/>
  </g>
  <g id="LWPOLYLINE2">
    <polyline class="st0" points="416.58 329.01 416.88 329.64 417.17 330.15 417.46 330.55 417.73 330.78 417.95 330.88 418.14 330.8 418.29 330.58 418.36 330.22"/>
  </g>
  <g id="LINE18">
    <line class="st0" x1="418.36" y1="330.22" x2="419.37" y2="322.02"/>
  </g>
  <g id="LWPOLYLINE3">
    <polyline class="st0" points="419.37 322.02 419.46 321.66 419.6 321.43 419.78 321.37 420.02 321.46 420.28 321.7 420.56 322.09 420.87 322.61 421.17 323.23"/>
  </g>
  <g id="LINE19">
    <line class="st0" x1="421.17" y1="323.23" x2="423.24" y2="327.95"/>
  </g>
  <g id="ARC2">
    <path class="st0" d="M424.42,332.05c-.21-1.41-.61-2.79-1.18-4.1"/>
  </g>
  <g id="LINE20">
    <line class="st0" x1="453.91" y1="345.43" x2="450.91" y2="324.33"/>
  </g>
  <g id="ARC3">
    <path class="st0" d="M450.91,324.33c-.21-1.41-.61-2.79-1.18-4.1"/>
  </g>
  <g id="LINE21">
    <line class="st0" x1="449.74" y1="320.24" x2="447.66" y2="315.52"/>
  </g>
  <g id="LWPOLYLINE4">
    <polyline class="st0" points="447.66 315.52 447.36 314.89 447.06 314.37 446.77 313.98 446.51 313.74 446.28 313.65 446.19 313.66"/>
  </g>
  <g id="LWPOLYLINE5">
    <polyline class="st0" points="452.62 356.58 452.92 356.45 453.55 355.75 454.02 354.55 454.28 352.86 454.36 350.74 454.23 348.24 453.91 345.43"/>
  </g>
  <g id="LINE22">
    <line class="st0" x1="440.44" y1="315.33" x2="302.85" y2="2.87"/>
  </g>
  <g id="LWPOLYLINE6">
    <polyline class="st0" points="302.85 2.87 302.55 2.24 302.25 1.73 301.96 1.33 301.7 1.1 301.47 1 301.38 1.01"/>
  </g>
  <g id="LINE23">
    <line class="st0" x1="185.96" y1="401.48" x2="188.96" y2="422.57"/>
  </g>
  <g id="LWPOLYLINE7">
    <polyline class="st0" points="188.96 422.57 189.28 425.39 189.41 427.88 189.34 429.99 189.06 431.68 188.6 432.89 187.96 433.58 187.16 433.76 186.21 433.4 185.16 432.52 184 431.14 182.8 429.3 181.56 427.04 180.33 424.43"/>
  </g>
  <g id="LINE24">
    <line class="st0" x1="180.33" y1="424.43" x2="168.87" y2="398.41"/>
  </g>
  <g id="LINE25">
    <line class="st0" x1="138.7" y1="326.61" x2="139.02" y2="323.96"/>
  </g>
  <g id="LINE26">
    <line class="st0" x1="139.02" y1="323.96" x2="80.4" y2="190.81"/>
  </g>
  <g id="ARC4">
    <path class="st0" d="M48.86,123.43c1.98,5.87,4.19,11.67,6.6,17.38"/>
  </g>
  <g id="LINE27">
    <line class="st0" x1="48.86" y1="123.43" x2="37.73" y2="90.69"/>
  </g>
  <g id="ARC5">
    <path class="st0" d="M35.93,80.26c-.07,3.56.54,7.1,1.8,10.43"/>
  </g>
  <g id="LINE28">
    <line class="st0" x1="36.1" y1="78.81" x2="35.93" y2="80.26"/>
  </g>
  <g id="LWPOLYLINE8">
    <polyline class="st0" points="36.1 78.81 36.19 78.43 36.32 78.21 36.51 78.15 36.74 78.23 37.01 78.48 37.29 78.86 37.6 79.38 37.9 80.01"/>
  </g>
  <g id="LINE29">
    <line class="st0" x1="37.9" y1="80.01" x2="178.12" y2="398.43"/>
  </g>
  <g id="LWPOLYLINE9">
    <polyline class="st0" points="178.12 398.43 178.42 399.06 178.72 399.58 179 399.97 179.27 400.21 179.5 400.3 179.69 400.24 179.83 400.01 179.91 399.64"/>
  </g>
  <g id="LINE30">
    <line class="st0" x1="179.91" y1="399.64" x2="180.92" y2="391.46"/>
  </g>
  <g id="LWPOLYLINE10">
    <polyline class="st0" points="180.92 391.46 181 391.08 181.14 390.86 181.33 390.79 181.56 390.88 181.82 391.13 182.11 391.51 182.41 392.03 182.71 392.66"/>
  </g>
  <g id="LINE31">
    <line class="st0" x1="182.71" y1="392.66" x2="184.79" y2="397.38"/>
  </g>
  <g id="ARC6">
    <path class="st0" d="M185.96,401.48c-.21-1.41-.61-2.79-1.18-4.1"/>
  </g>
  <g id="LINE32">
    <line class="st0" x1="215.45" y1="414.86" x2="212.45" y2="393.77"/>
  </g>
  <g id="ARC7">
    <path class="st0" d="M212.45,393.77c-.21-1.41-.61-2.79-1.18-4.1"/>
  </g>
  <g id="LINE33">
    <line class="st0" x1="211.28" y1="389.66" x2="209.2" y2="384.94"/>
  </g>
  <g id="LWPOLYLINE11">
    <polyline class="st0" points="209.2 384.94 208.9 384.32 208.6 383.8 208.32 383.41 208.05 383.17 207.83 383.08 207.74 383.08"/>
  </g>
  <g id="LWPOLYLINE12">
    <polyline class="st0" points="214.16 426.01 214.46 425.87 215.1 425.18 215.56 423.97 215.83 422.28 215.9 420.16 215.78 417.67 215.45 414.86"/>
  </g>
  <g id="LINE34">
    <line class="st0" x1="201.99" y1="384.76" x2="64.39" y2="72.3"/>
  </g>
  <g id="LWPOLYLINE13">
    <polyline class="st0" points="64.39 72.3 64.09 71.67 63.79 71.15 63.51 70.77 63.24 70.52 63.01 70.43 62.92 70.45"/>
  </g>
  <g id="LINE35">
    <line class="st0" x1="121" y1="384.84" x2="30.55" y2="179.45"/>
  </g>
  <g id="LWPOLYLINE14">
    <polyline class="st0" points="134.25 380.99 134.69 382.69 134.56 384.39 133.87 386 132.68 387.34 131.07 388.32 129.18 388.87 127.17 388.94 125.2 388.52 123.42 387.64 121.98 386.38 121 384.84"/>
  </g>
  <g id="LINE36">
    <line class="st0" x1="43.8" y1="175.59" x2="134.25" y2="380.99"/>
  </g>
  <g id="LWPOLYLINE15">
    <polyline class="st0" points="30.55 179.45 30.1 177.76 30.23 176.04 30.93 174.45 32.13 173.1 33.73 172.12 35.62 171.57 37.63 171.51 39.6 171.92 41.38 172.8 42.82 174.05 43.8 175.59"/>
  </g>
  <g id="LINE37">
    <line class="st0" x1="233.61" y1="352.07" x2="143.16" y2="146.66"/>
  </g>
  <g id="LWPOLYLINE16">
    <polyline class="st0" points="246.85 348.21 247.29 349.9 247.17 351.62 246.48 353.21 245.28 354.55 243.67 355.54 241.79 356.09 239.78 356.15 237.8 355.73 236.03 354.85 234.59 353.6 233.61 352.07"/>
  </g>
  <g id="LINE38">
    <line class="st0" x1="156.41" y1="142.81" x2="246.85" y2="348.21"/>
  </g>
  <g id="LWPOLYLINE17">
    <polyline class="st0" points="143.16 146.66 142.71 144.97 142.85 143.26 143.54 141.67 144.73 140.32 146.34 139.33 148.22 138.78 150.23 138.72 152.21 139.14 153.99 140.01 155.42 141.28 156.41 142.81"/>
  </g>
  <g id="LINE39">
    <line class="st0" x1="286.6" y1="336.63" x2="196.14" y2="131.24"/>
  </g>
  <g id="LWPOLYLINE18">
    <polyline class="st0" points="299.85 332.77 300.29 334.47 300.16 336.18 299.47 337.78 298.27 339.12 296.67 340.11 294.77 340.65 292.76 340.73 290.8 340.3 289.02 339.43 287.57 338.17 286.6 336.63"/>
  </g>
  <g id="LINE40">
    <line class="st0" x1="209.39" y1="127.38" x2="299.85" y2="332.77"/>
  </g>
  <g id="LWPOLYLINE19">
    <polyline class="st0" points="196.14 131.24 195.7 129.55 195.83 127.83 196.52 126.24 197.72 124.9 199.33 123.91 201.22 123.36 203.23 123.3 205.2 123.71 206.98 124.58 208.42 125.84 209.39 127.38"/>
  </g>
  <g id="LINE41">
    <line class="st0" x1="339.59" y1="321.21" x2="249.14" y2="115.81"/>
  </g>
  <g id="LWPOLYLINE20">
    <polyline class="st0" points="352.84 317.35 353.28 319.05 353.15 320.76 352.45 322.35 351.26 323.69 349.65 324.68 347.77 325.23 345.75 325.3 343.78 324.88 342 324 340.57 322.75 339.59 321.21"/>
  </g>
  <g id="LINE42">
    <line class="st0" x1="262.38" y1="111.96" x2="352.84" y2="317.35"/>
  </g>
  <g id="LWPOLYLINE21">
    <polyline class="st0" points="249.14 115.81 248.69 114.11 248.82 112.41 249.51 110.82 250.71 109.46 252.32 108.48 254.2 107.93 256.21 107.86 258.19 108.28 259.96 109.16 261.41 110.42 262.38 111.96"/>
  </g>
  <g id="LINE43">
    <line class="st0" x1="452.2" y1="288.42" x2="361.74" y2="83.02"/>
  </g>
  <g id="LWPOLYLINE22">
    <polyline class="st0" points="465.44 284.56 465.89 286.26 465.76 287.97 465.06 289.57 463.86 290.91 462.25 291.9 460.37 292.45 458.36 292.51 456.38 292.09 454.61 291.21 453.17 289.96 452.2 288.42"/>
  </g>
  <g id="LINE44">
    <line class="st0" x1="374.99" y1="79.17" x2="465.44" y2="284.56"/>
  </g>
  <g id="LWPOLYLINE23">
    <polyline class="st0" points="361.74 83.02 361.3 81.33 361.43 79.62 362.12 78.03 363.31 76.68 364.92 75.69 366.8 75.15 368.82 75.08 370.79 75.5 372.57 76.37 374.01 77.63 374.99 79.17"/>
  </g>
  <g id="ARC8">
    <path class="st0" d="M58.87,145.33c-3.44-6.64-11.16-9.86-18.3-7.61"/>
  </g>
  <g id="LINE45">
    <line class="st0" x1="78.57" y1="190.05" x2="58.87" y2="145.33"/>
  </g>
  <g id="ARC9">
    <path class="st0" d="M78.57,190.05c.35.67,1.12.98,1.83.76"/>
  </g>
  <g id="ARC10">
    <path class="st0" d="M96.2,121.51c-3.17.84-5.92,2.87-7.65,5.66"/>
  </g>
  <g id="LINE46">
    <line class="st0" x1="96.2" y1="121.51" x2="279.03" y2="68.28"/>
  </g>
  <g id="ARC11">
    <path class="st0" d="M297.33,75.9c-3.44-6.64-11.16-9.86-18.3-7.61"/>
  </g>
  <g id="LINE47">
    <line class="st0" x1="317.02" y1="120.63" x2="297.33" y2="75.9"/>
  </g>
  <g id="ARC12">
    <path class="st0" d="M317.02,120.63c.35.67,1.12.98,1.83.76"/>
  </g>
  <g id="ARC13">
    <path class="st0" d="M334.66,52.09c-3.17.84-5.92,2.87-7.65,5.66"/>
  </g>
  <g id="LINE48">
    <line class="st0" x1="334.66" y1="52.09" x2="346.59" y2="48.62"/>
  </g>
  <g id="LWPOLYLINE24">
    <polyline class="st0" points="346.59 48.62 351.14 47.54 355.81 46.91 360.57 46.73 365.33 47 370.05 47.73 374.67 48.9 379.13 50.51 383.37 52.53 387.33 54.92 390.98 57.67 394.25 60.74 397.12 64.09 399.54 67.68 401.49 71.46"/>
  </g>
  <g id="LINE49">
    <line class="st0" x1="401.49" y1="71.46" x2="498.15" y2="290.98"/>
  </g>
  <g id="ARC14">
    <path class="st0" d="M376.73,252.81c-.61.13-1.01.73-.88,1.34,0,.07.03.13.06.19"/>
  </g>
  <g id="LINE50">
    <line class="st0" x1="404.1" y1="318.36" x2="375.91" y2="254.34"/>
  </g>
  <g id="ARC15">
    <path class="st0" d="M138.27,322.23c-.61.13-1.01.73-.88,1.34,0,.07.03.13.06.19"/>
  </g>
  <g id="LINE51">
    <line class="st0" x1="165.64" y1="387.79" x2="137.45" y2="323.76"/>
  </g>
  <g id="LINE52">
    <line class="st0" x1="100.73" y1="406.68" x2="4.06" y2="187.16"/>
  </g>
  <g id="LWPOLYLINE25">
    <polyline class="st0" points="4.06 187.16 2.61 183.24 1.68 179.22 1.28 175.15 1.41 171.09 2.09 167.09 3.28 163.18 4.98 159.45 7.17 155.9 9.83 152.62 12.91 149.61 16.37 146.94 20.18 144.62 24.29 142.7 28.65 141.19"/>
  </g>
  <g id="LINE53">
    <line class="st0" x1="28.65" y1="141.19" x2="40.57" y2="137.72"/>
  </g>
  <g id="LINE54">
    <line class="st0" x1="100.45" y1="408.92" x2="3.78" y2="189.4"/>
  </g>
  <g id="LINE55">
    <line class="st0" x1="101.69" y1="409.38" x2="110.61" y2="440.52"/>
  </g>
  <g id="LINE56">
    <line class="st0" x1="100.69" y1="409.59" x2="109.61" y2="440.73"/>
  </g>
  <g id="LINE57">
    <line class="st0" x1="166.6" y1="390.48" x2="175.52" y2="421.62"/>
  </g>
  <g id="ARC16">
    <path class="st0" d="M101.69,409.38c-.26-.92-.58-1.82-.96-2.69"/>
  </g>
  <g id="ARC17">
    <path class="st0" d="M100.69,409.59c-.06-.23-.15-.45-.24-.67"/>
  </g>
  <g id="ARC18">
    <path class="st0" d="M166.6,390.48c-.26-.92-.58-1.82-.96-2.69"/>
  </g>
  <g id="LWPOLYLINE26">
    <polyline class="st0" points="110.61 440.52 110.98 441.94 111.22 443.29 111.34 444.46 111.31 445.39 111.14 446.01 110.85 446.26 110.46 446.15 109.97 445.68"/>
  </g>
  <g id="LWPOLYLINE27">
    <polyline class="st0" points="175.79 427.36 176.06 427.1 176.22 426.49 176.24 425.56 176.13 424.39 175.89 423.05 175.52 421.62"/>
  </g>
  <g id="LWPOLYLINE28">
    <polyline class="st0" points="109.61 440.73 109.71 441.09 109.77 441.42 109.8 441.71 109.79 441.95 109.75 442.1 109.68 442.16 109.58 442.14 109.46 442.02"/>
  </g>
  <g id="LINE58">
    <line class="st0" x1="102.24" y1="432.74" x2="109.46" y2="442.02"/>
  </g>
  <g id="ARC19">
    <path class="st0" d="M99.66,418.24c-1.72,4.95-.75,10.44,2.57,14.49"/>
  </g>
  <g id="LINE59">
    <line class="st0" x1="101.55" y1="412.59" x2="99.66" y2="418.24"/>
  </g>
  <g id="LINE60">
    <line class="st0" x1="102.76" y1="436.39" x2="109.97" y2="445.68"/>
  </g>
  <g id="LINE61">
    <line class="st0" x1="405.05" y1="321.06" x2="413.98" y2="352.19"/>
  </g>
  <g id="ARC20">
    <path class="st0" d="M405.05,321.06c-.26-.92-.58-1.82-.96-2.69"/>
  </g>
  <g id="LWPOLYLINE29">
    <polyline class="st0" points="414.24 357.93 414.52 357.68 414.67 357.06 414.7 356.14 414.59 354.96 414.34 353.61 413.98 352.19"/>
  </g>
  <g id="ARC21">
    <path class="st0" d="M99.48,428.96c.42,2.73,1.55,5.29,3.28,7.44"/>
  </g>
  <g id="LINE62">
    <line class="st0" x1="137.99" y1="324.47" x2="138.27" y2="322.23"/>
  </g>
  <g id="LINE63">
    <line class="st0" x1="137.99" y1="324.47" x2="137.79" y2="324.54"/>
  </g>
  <g id="LINE64">
    <line class="st0" x1="139" y1="324.17" x2="137.99" y2="324.47"/>
  </g>
  <g id="LINE65">
    <line class="st0" x1="508.04" y1="324.8" x2="499.12" y2="293.67"/>
  </g>
  <g id="ARC22">
    <path class="st0" d="M499.12,293.67c-.26-.92-.58-1.82-.96-2.69"/>
  </g>
  <g id="LWPOLYLINE30">
    <polyline class="st0" points="508.3 330.55 508.57 330.29 508.74 329.69 508.76 328.75 508.65 327.58 508.4 326.23 508.04 324.8"/>
  </g>
  <g id="LINE66">
    <line class="st0" x1="376.45" y1="255.04" x2="376.25" y2="255.12"/>
  </g>
  <g id="LINE67">
    <line class="st0" x1="377.46" y1="254.75" x2="376.45" y2="255.04"/>
  </g>
  <g id="ARC23">
    <path class="st0" d="M1.22,172.6c-.68,5.72.2,11.53,2.56,16.8"/>
  </g>
  <g id="LWPOLYLINE31">
    <polyline class="st1" points="163.96 353.69 165.27 352.93 166.17 352.06 166.57 351.13 166.45 350.24 165.8 349.46 164.7 348.86 163.22 348.51 161.52 348.42 159.73 348.61 158.03 349.05 156.55 349.72 155.42 350.54 154.76 351.46 154.62 352.37 155.01 353.22 155.9 353.91 157.21 354.39 158.82 354.62 160.58 354.57 162.35 354.25 163.96 353.69"/>
  </g>
  <g id="LWPOLYLINE32">
    <polyline class="st1" points="280.78 301.22 282.1 300.47 282.99 299.59 283.4 298.67 283.27 297.78 282.63 297 281.52 296.4 280.05 296.04 278.35 295.95 276.56 296.14 274.85 296.59 273.37 297.25 272.25 298.08 271.59 298.99 271.44 299.91 271.84 300.75 272.72 301.45 274.03 301.93 275.64 302.15 277.4 302.1 279.17 301.78 280.78 301.22"/>
  </g>
  <g id="LWPOLYLINE33">
    <polyline class="st1" points="397.61 248.76 398.92 248 399.82 247.13 400.23 246.2 400.11 245.31 399.45 244.53 398.35 243.94 396.87 243.58 395.17 243.5 393.38 243.68 391.68 244.12 390.19 244.79 389.08 245.61 388.41 246.53 388.28 247.44 388.66 248.29 389.56 248.98 390.86 249.46 392.47 249.69 394.23 249.64 396 249.32 397.61 248.76"/>
  </g>
</svg>