<?xml version="1.0" encoding="UTF-8"?>
<svg id="katman_1" xmlns="http://www.w3.org/2000/svg" width="1920" height="1080" version="1.1" viewBox="0 0 1920 1080">
  <!-- Generator: Adobe Illustrator 30.4.0, SVG Export Plug-In . SVG Version: 2.1.4 Build 226)  -->
  <defs>
    <style>
      .st0 {
        fill: none;
        stroke: #333132;
        stroke-linecap: round;
        stroke-linejoin: round;
        stroke-width: 2px;
      }
    </style>
  </defs>
  <g id="LINE8">
    <line class="st0" x1="894.53" y1="326.97" x2="908.74" y2="339.28"/>
  </g>
  <g id="LINE9">
    <line class="st0" x1="897.97" y1="309.76" x2="894.28" y2="310.83"/>
  </g>
  <g id="LINE10">
    <line class="st0" x1="996.53" y1="649.41" x2="1000.22" y2="648.35"/>
  </g>
  <g id="LINE11">
    <line class="st0" x1="882.87" y1="628.98" x2="882.87" y2="632.67"/>
  </g>
  <g id="LINE12">
    <line class="st0" x1="914.96" y1="343.49" x2="914.96" y2="333.31"/>
  </g>
  <g id="LINE13">
    <line class="st0" x1="911.59" y1="340.57" x2="914.96" y2="343.49"/>
  </g>
  <g id="LINE14">
    <line class="st0" x1="911.59" y1="336.88" x2="911.59" y2="340.57"/>
  </g>
  <g id="LINE15">
    <line class="st0" x1="911.23" y1="336.57" x2="911.59" y2="336.88"/>
  </g>
  <g id="LWPOLYLINE30">
    <polyline class="st0" points="914.02 329.43 912.38 326.32 911.23 324.37"/>
  </g>
  <g id="ARC7">
    <path class="st0" d="M914.96,333.31c-.03-1.35-.35-2.67-.94-3.88"/>
  </g>
  <g id="LINE16">
    <line class="st0" x1="956.99" y1="294.18" x2="900.17" y2="310.59"/>
  </g>
  <g id="LWPOLYLINE31">
    <polyline class="st0" points="976.77 311.31 975.13 308.2 973.4 305.33 971.59 302.72 969.73 300.4 967.83 298.41 965.93 296.76 964.03 295.47 962.17 294.56 960.36 294.04 958.63 293.91 956.99 294.18"/>
  </g>
  <g id="ARC8">
    <path class="st0" d="M977.71,315.19c-.03-1.35-.35-2.67-.94-3.88"/>
  </g>
  <g id="LINE17">
    <line class="st0" x1="977.71" y1="325.37" x2="914.96" y2="343.49"/>
  </g>
  <g id="LINE18">
    <line class="st0" x1="977.71" y1="325.37" x2="977.71" y2="315.19"/>
  </g>
  <g id="ARC9">
    <path class="st0" d="M907.54,325.38c-.02-1.72-.55-3.41-1.51-4.84"/>
  </g>
  <g id="LINE19">
    <line class="st0" x1="907.54" y1="336.4" x2="907.54" y2="325.38"/>
  </g>
  <g id="LINE20">
    <line class="st0" x1="893.33" y1="313.08" x2="893.33" y2="324.1"/>
  </g>
  <g id="LWPOLYLINE32">
    <polyline class="st0" points="894.84 310.86 894.53 310.8 894.24 310.84 893.97 311 893.75 311.24 893.57 311.59 893.44 312.02 893.36 312.52 893.33 313.08"/>
  </g>
  <g id="ARC10">
    <path class="st0" d="M906.03,320.55c-2.68-4.27-6.58-7.65-11.19-9.69"/>
  </g>
  <g id="ARC11">
    <path class="st0" d="M911.23,324.32c-.02-1.72-.55-3.41-1.51-4.84"/>
  </g>
  <g id="LINE21">
    <line class="st0" x1="940.43" y1="584.23" x2="983.49" y2="621.51"/>
  </g>
  <g id="LWPOLYLINE33">
    <polyline class="st0" points="983.49 621.51 983.95 621.83 984.39 621.95 984.78 621.87 985.12 621.61 985.38 621.16 985.54 620.56 985.61 619.83 985.58 619"/>
  </g>
  <g id="LINE22">
    <line class="st0" x1="985.58" y1="619" x2="964.06" y2="389.68"/>
  </g>
  <g id="LWPOLYLINE34">
    <polyline class="st0" points="964.06 389.68 963.84 388.42 963.45 387.16 962.91 386.04 962.29 385.15 961.63 384.58 961 384.38 960.47 384.58 960.07 385.15 959.86 386.05"/>
  </g>
  <g id="LINE23">
    <line class="st0" x1="959.86" y1="386.05" x2="938.33" y2="578.07"/>
  </g>
  <g id="ARC12">
    <path class="st0" d="M938.33,578.07c-.19,2.25.57,4.49,2.1,6.15"/>
  </g>
  <g id="LWPOLYLINE35">
    <polyline class="st0" points="995.35 649.01 995.76 649.3 996.16 649.44 996.53 649.41 996.85 649.23 997.12 648.9 997.31 648.44 997.44 647.85 997.48 647.17"/>
  </g>
  <g id="LINE24">
    <line class="st0" x1="976.17" y1="632.4" x2="995.35" y2="649.01"/>
  </g>
  <g id="LINE25">
    <line class="st0" x1="947.75" y1="607.79" x2="928.57" y2="591.18"/>
  </g>
  <g id="ARC13">
    <path class="st0" d="M926.44,585.64c-.02,2.05.74,4.03,2.13,5.54"/>
  </g>
  <g id="LINE26">
    <line class="st0" x1="926.44" y1="585.64" x2="926.44" y2="583.66"/>
  </g>
  <g id="ARC14">
    <path class="st0" d="M926.98,573.41c-.37,3.4-.55,6.83-.54,10.25"/>
  </g>
  <g id="LINE27">
    <line class="st0" x1="926.98" y1="573.41" x2="954.02" y2="332.21"/>
  </g>
  <g id="LINE28">
    <line class="st0" x1="969.06" y1="327.87" x2="969.06" y2="337.1"/>
  </g>
  <g id="LINE29">
    <line class="st0" x1="969.06" y1="337.1" x2="996.93" y2="633.99"/>
  </g>
  <g id="ARC15">
    <path class="st0" d="M997.48,645.18c0-3.74-.19-7.47-.54-11.19"/>
  </g>
  <g id="LINE30">
    <line class="st0" x1="997.48" y1="645.18" x2="997.48" y2="647.17"/>
  </g>
  <g id="ARC16">
    <path class="st0" d="M909.72,319.48c-2.68-4.27-6.58-7.65-11.19-9.69"/>
  </g>
  <g id="LINE31">
    <line class="st0" x1="911.23" y1="336.57" x2="911.23" y2="324.32"/>
  </g>
  <g id="LINE32">
    <line class="st0" x1="1000.62" y1="632.93" x2="972.75" y2="336.03"/>
  </g>
  <g id="ARC17">
    <path class="st0" d="M907.54,336.4c-.1,1.95,1.39,3.61,3.33,3.71.24.01.48,0,.71-.03"/>
  </g>
  <g id="ARC18">
    <path class="st0" d="M893.33,324.1c-.04,1.09.4,2.14,1.2,2.88"/>
  </g>
  <g id="LWPOLYLINE36">
    <polyline class="st0" points="897.97 309.76 898.22 309.73 898.53 309.79"/>
  </g>
  <g id="LINE33">
    <line class="st0" x1="972.75" y1="336.03" x2="972.75" y2="326.81"/>
  </g>
  <g id="LINE34">
    <line class="st0" x1="942.02" y1="577.01" x2="963.34" y2="386.89"/>
  </g>
  <g id="ARC19">
    <path class="st0" d="M1001.17,644.12c0-3.74-.19-7.47-.54-11.19"/>
  </g>
  <g id="LINE35">
    <line class="st0" x1="1001.17" y1="646.1" x2="1001.17" y2="644.12"/>
  </g>
  <g id="LWPOLYLINE37">
    <polyline class="st0" points="1001.17 646.1 1001.13 646.78 1001.01 647.37 1000.81 647.84 1000.54 648.17 1000.22 648.35 1000.22 648.35"/>
  </g>
  <g id="ARC20">
    <path class="st0" d="M907.59,654.66c1.73,1.12,3.86,1.4,5.82.78"/>
  </g>
  <g id="ARC21">
    <path class="st0" d="M907.59,650.97c1.73,1.12,3.86,1.4,5.82.78"/>
  </g>
  <g id="LINE36">
    <line class="st0" x1="913.41" y1="651.75" x2="974.94" y2="633.99"/>
  </g>
  <g id="LINE37">
    <line class="st0" x1="907.59" y1="650.97" x2="883.44" y2="630.05"/>
  </g>
  <g id="LWPOLYLINE38">
    <polyline class="st0" points="883.44 630.05 883.09 629.67 882.9 629.26 882.88 628.84 883.01 628.43 883.31 628.04 883.75 627.69 884.32 627.38 885 627.14"/>
  </g>
  <g id="LINE38">
    <line class="st0" x1="885" y1="627.14" x2="946.52" y2="609.38"/>
  </g>
  <g id="ARC22">
    <path class="st0" d="M974.94,637.68c1.6-.51,2.98-1.57,3.87-2.99"/>
  </g>
  <g id="LINE39">
    <line class="st0" x1="913.41" y1="655.44" x2="974.94" y2="637.68"/>
  </g>
  <g id="ARC23">
    <path class="st0" d="M974.94,633.99c.7-.22,1.19-.85,1.23-1.59"/>
  </g>
  <g id="LINE40">
    <line class="st0" x1="907.59" y1="654.66" x2="883.44" y2="633.74"/>
  </g>
  <g id="LINE41">
    <line class="st0" x1="985.59" y1="619.07" x2="944.12" y2="583.16"/>
  </g>
  <g id="ARC24">
    <path class="st0" d="M946.52,609.38c.7-.22,1.19-.85,1.23-1.59"/>
  </g>
  <g id="ARC25">
    <path class="st0" d="M882.87,632.67c.02.42.23.81.57,1.07"/>
  </g>
  <g id="ARC26">
    <path class="st0" d="M942.02,577.01c-.19,2.25.57,4.49,2.1,6.15"/>
  </g>
</svg>