<?xml version="1.0" encoding="UTF-8"?>
<svg id="katman_1" xmlns="http://www.w3.org/2000/svg" width="1920" height="1080" version="1.1" viewBox="0 0 1920 1080">
  <!-- Generator: Adobe Illustrator 30.4.0, SVG Export Plug-In . SVG Version: 2.1.4 Build 226)  -->
  <defs>
    <style>
      .st0 {
        stroke: #333132;
        stroke-width: 2px;
      }

      .st0, .st1 {
        fill: none;
        stroke-linecap: round;
        stroke-linejoin: round;
      }
    </style>
  </defs>
  <g id="LINE">
    <line class="st0" x1="991.57" y1="648.84" x2="995.26" y2="647.77"/>
  </g>
  <g id="LINE1" data-name="LINE">
    <line class="st0" x1="881.6" y1="629.8" x2="881.6" y2="633.5"/>
  </g>
  <g id="LINE2" data-name="LINE">
    <line class="st0" x1="949.9" y1="324.22" x2="949.9" y2="311.92"/>
  </g>
  <g id="LINE3" data-name="LINE">
    <line class="st0" x1="964.11" y1="324.22" x2="964.11" y2="336.53"/>
  </g>
  <g id="LINE4" data-name="LINE">
    <line class="st0" x1="964.11" y1="336.53" x2="991.98" y2="633.42"/>
  </g>
  <g id="ARC">
    <path class="st0" d="M992.52,644.61c0-3.74-.19-7.47-.54-11.19"/>
  </g>
  <g id="LINE5" data-name="LINE">
    <line class="st0" x1="992.52" y1="644.61" x2="992.52" y2="646.59"/>
  </g>
  <g id="LWPOLYLINE">
    <polyline class="st0" points="990.39 648.44 990.81 648.73 991.21 648.86 991.57 648.84 991.9 648.66 992.16 648.33 992.36 647.86 992.48 647.28 992.52 646.59"/>
  </g>
  <g id="LINE6" data-name="LINE">
    <line class="st0" x1="990.39" y1="648.44" x2="971.21" y2="631.83"/>
  </g>
  <g id="LINE7" data-name="LINE">
    <line class="st0" x1="923.61" y1="590.61" x2="942.79" y2="607.22"/>
  </g>
  <g id="ARC1" data-name="ARC">
    <path class="st0" d="M921.48,585.07c-.02,2.05.74,4.03,2.13,5.54"/>
  </g>
  <g id="LINE8" data-name="LINE">
    <line class="st0" x1="921.48" y1="585.07" x2="921.48" y2="583.09"/>
  </g>
  <g id="ARC2" data-name="ARC">
    <path class="st0" d="M922.03,572.84c-.37,3.4-.55,6.83-.54,10.25"/>
  </g>
  <g id="LINE9" data-name="LINE">
    <line class="st0" x1="922.03" y1="572.84" x2="949.9" y2="324.22"/>
  </g>
  <g id="LWPOLYLINE1" data-name="LWPOLYLINE">
    <polyline class="st0" points="959.1 389.11 958.89 387.84 958.49 386.59 957.96 385.46 957.33 384.57 956.67 384 956.05 383.81 955.51 384.01 955.12 384.58 954.9 385.47"/>
  </g>
  <g id="LINE10" data-name="LINE">
    <line class="st0" x1="954.9" y1="385.47" x2="933.38" y2="577.5"/>
  </g>
  <g id="ARC3" data-name="ARC">
    <path class="st0" d="M933.38,577.5c-.19,2.25.57,4.49,2.1,6.15"/>
  </g>
  <g id="LINE11" data-name="LINE">
    <line class="st0" x1="935.47" y1="583.65" x2="978.53" y2="620.94"/>
  </g>
  <g id="LWPOLYLINE2" data-name="LWPOLYLINE">
    <polyline class="st0" points="978.53 620.94 978.99 621.25 979.43 621.37 979.83 621.3 980.16 621.03 980.42 620.59 980.59 619.98 980.66 619.25 980.63 618.42"/>
  </g>
  <g id="LINE12" data-name="LINE">
    <line class="st0" x1="980.63" y1="618.42" x2="959.1" y2="389.11"/>
  </g>
  <g id="LINE13" data-name="LINE">
    <line class="st0" x1="995.67" y1="632.35" x2="967.8" y2="335.46"/>
  </g>
  <g id="LWPOLYLINE3" data-name="LWPOLYLINE">
    <polyline class="st0" points="964.46 322.28 964.2 323.23 964.11 324.22"/>
  </g>
  <g id="ARC4" data-name="ARC">
    <path class="st0" d="M951.24,308.16c-.83,1.08-1.3,2.4-1.34,3.76"/>
  </g>
  <g id="LINE14" data-name="LINE">
    <line class="st0" x1="967.8" y1="335.46" x2="967.8" y2="326.19"/>
  </g>
  <g id="LINE15" data-name="LINE">
    <line class="st0" x1="937.07" y1="576.44" x2="958.38" y2="386.31"/>
  </g>
  <g id="ARC5" data-name="ARC">
    <path class="st0" d="M996.21,643.55c0-3.74-.19-7.47-.54-11.19"/>
  </g>
  <g id="LINE16" data-name="LINE">
    <line class="st0" x1="996.21" y1="645.53" x2="996.21" y2="643.55"/>
  </g>
  <g id="LWPOLYLINE4" data-name="LWPOLYLINE">
    <polyline class="st0" points="996.21 645.53 996.17 646.21 996.05 646.8 995.85 647.27 995.59 647.6 995.27 647.77 995.26 647.77"/>
  </g>
  <g id="ARC6" data-name="ARC">
    <path class="st0" d="M967.52,636.58c2.11-.65,3.58-2.55,3.69-4.76"/>
  </g>
  <g id="ARC7" data-name="ARC">
    <path class="st0" d="M967.52,640.27c2.95-.94,5.35-3.11,6.58-5.94"/>
  </g>
  <g id="LINE17" data-name="LINE">
    <line class="st0" x1="912.15" y1="656.26" x2="967.52" y2="640.27"/>
  </g>
  <g id="LINE18" data-name="LINE">
    <line class="st0" x1="967.52" y1="636.58" x2="912.15" y2="652.57"/>
  </g>
  <g id="ARC8" data-name="ARC">
    <path class="st0" d="M906.33,655.48c1.73,1.12,3.86,1.4,5.82.78"/>
  </g>
  <g id="ARC9" data-name="ARC">
    <path class="st0" d="M906.33,651.79c1.73,1.12,3.86,1.4,5.82.78"/>
  </g>
  <g id="LINE19" data-name="LINE">
    <line class="st0" x1="906.33" y1="651.79" x2="882.17" y2="630.87"/>
  </g>
  <g id="LWPOLYLINE5" data-name="LWPOLYLINE">
    <polyline class="st0" points="883.73 627.96 883.06 628.2 882.48 628.51 882.04 628.86 881.75 629.25 881.61 629.66 881.64 630.08 881.83 630.49 882.17 630.87"/>
  </g>
  <g id="LINE20" data-name="LINE">
    <line class="st0" x1="883.73" y1="627.96" x2="939.1" y2="611.97"/>
  </g>
  <g id="LINE21" data-name="LINE">
    <line class="st0" x1="906.33" y1="655.48" x2="882.17" y2="634.56"/>
  </g>
  <g id="LINE22" data-name="LINE">
    <line class="st0" x1="980.64" y1="618.5" x2="939.17" y2="582.59"/>
  </g>
  <g id="ARC10" data-name="ARC">
    <path class="st0" d="M939.1,611.97c2.11-.65,3.58-2.55,3.69-4.76"/>
  </g>
  <g id="ARC11" data-name="ARC">
    <path class="st0" d="M881.6,633.5c.02.42.23.81.57,1.07"/>
  </g>
  <g id="ARC12" data-name="ARC">
    <path class="st0" d="M937.07,576.44c-.19,2.25.57,4.49,2.1,6.15"/>
  </g>
  <g id="LINE23" data-name="LINE">
    <line class="st0" x1="964.46" y1="323.3" x2="967.84" y2="326.22"/>
  </g>
  <g id="LINE24" data-name="LINE">
    <line class="st0" x1="964.46" y1="319.61" x2="964.46" y2="323.3"/>
  </g>
  <g id="LINE25" data-name="LINE">
    <line class="st0" x1="949.54" y1="306.69" x2="964.46" y2="319.61"/>
  </g>
  <g id="LINE26" data-name="LINE">
    <line class="st0" x1="949.54" y1="310.38" x2="949.54" y2="306.69"/>
  </g>
  <g id="LINE27" data-name="LINE">
    <line class="st0" x1="946.17" y1="307.46" x2="949.54" y2="310.38"/>
  </g>
  <g id="LINE28" data-name="LINE">
    <line class="st0" x1="946.17" y1="307.46" x2="946.17" y2="297.28"/>
  </g>
  <g id="ARC13" data-name="ARC">
    <path class="st0" d="M947.11,295.03c-.74.49-1.11,1.38-.94,2.25"/>
  </g>
  <g id="LWPOLYLINE6" data-name="LWPOLYLINE">
    <polyline class="st0" points="947.11 295.03 948.75 294.76 950.48 294.89 952.29 295.41 954.15 296.32 956.05 297.6 957.96 299.25 959.85 301.25 961.71 303.56 963.52 306.17 965.25 309.05 966.89 312.16"/>
  </g>
  <g id="ARC14" data-name="ARC">
    <path class="st0" d="M967.84,316.04c-.03-1.35-.35-2.67-.94-3.88"/>
  </g>
  <g id="LINE29" data-name="LINE">
    <line class="st0" x1="967.84" y1="316.04" x2="967.84" y2="326.22"/>
  </g>
  <g id="LINE30" data-name="LINE">
    <line class="st0" x1="1009.86" y1="276.91" x2="947.11" y2="295.03"/>
  </g>
  <g id="LINE31" data-name="LINE">
    <line class="st0" x1="1030.59" y1="308.11" x2="967.84" y2="326.22"/>
  </g>
  <g id="LINE32" data-name="LINE">
    <line class="st0" x1="949.54" y1="310.38" x2="950.18" y2="310.2"/>
  </g>
  <g id="LINE33" data-name="LINE">
    <line class="st0" x1="1017.29" y1="273.32" x2="1013.6" y2="274.38"/>
  </g>
  <g id="LWPOLYLINE7" data-name="LWPOLYLINE">
    <polyline class="st0" points="1009.86 276.91 1011.5 276.64 1013.24 276.77 1015.04 277.29 1016.91 278.2 1018.8 279.49 1020.71 281.14 1022.6 283.13 1024.46 285.45 1026.27 288.06 1028 290.94 1029.64 294.04"/>
  </g>
  <g id="ARC15" data-name="ARC">
    <path class="st0" d="M1030.59,297.93c-.03-1.35-.35-2.67-.94-3.88"/>
  </g>
  <g id="LINE34" data-name="LINE">
    <line class="st0" x1="1030.59" y1="297.93" x2="1030.59" y2="308.11"/>
  </g>
  <g id="LINE35" data-name="LINE">
    <line class="st0" x1="1012.65" y1="276.68" x2="1012.65" y2="276.63"/>
  </g>
  <g id="LWPOLYLINE8" data-name="LWPOLYLINE">
    <polyline class="st0" points="1014.16 274.41 1013.84 274.35 1013.55 274.4 1013.29 274.55 1013.07 274.8 1012.89 275.14 1012.76 275.57 1012.68 276.07 1012.65 276.63"/>
  </g>
  <g id="ARC16" data-name="ARC">
    <path class="st0" d="M1025.35,284.1c-2.68-4.27-6.58-7.65-11.19-9.69"/>
  </g>
  <g id="ARC17" data-name="ARC">
    <path class="st0" d="M1026.86,288.94c-.02-1.72-.55-3.41-1.51-4.84"/>
  </g>
  <g id="LINE36" data-name="LINE">
    <line class="st0" x1="1026.86" y1="288.94" x2="1026.86" y2="288.99"/>
  </g>
  <g id="ARC18" data-name="ARC">
    <path class="st0" d="M1030.55,287.87c-.02-1.72-.55-3.41-1.51-4.84"/>
  </g>
  <g id="ARC19" data-name="ARC">
    <path class="st0" d="M1029.04,283.03c-2.68-4.27-6.58-7.65-11.19-9.69"/>
  </g>
  <g id="LINE37" data-name="LINE">
    <line class="st0" x1="1030.55" y1="287.87" x2="1030.55" y2="297.2"/>
  </g>
  <g id="LWPOLYLINE9" data-name="LWPOLYLINE">
    <polyline class="st0" points="1017.29 273.32 1017.54 273.28 1017.85 273.34"/>
  </g>
  <g id="LINE38" data-name="LINE">
    <line class="st1" x1="907.94" y1="640.04" x2="929.78" y2="633.74"/>
  </g>
  <g id="LWPOLYLINE10" data-name="LWPOLYLINE">
    <polyline class="st1" points="929.78 633.74 930.9 633.28 931.69 632.68 932.06 631.98 931.99 631.26 931.47 630.58 930.56 630.02 929.35 629.63 927.96 629.44 926.51 629.48 925.16 629.74"/>
  </g>
  <g id="LINE39" data-name="LINE">
    <line class="st1" x1="925.16" y1="629.74" x2="903.32" y2="636.04"/>
  </g>
  <g id="LWPOLYLINE11" data-name="LWPOLYLINE">
    <polyline class="st1" points="903.32 636.04 902.2 636.5 901.41 637.1 901.04 637.8 901.12 638.52 901.63 639.2 902.54 639.76 903.75 640.15 905.15 640.34 906.59 640.3 907.94 640.04"/>
  </g>
</svg>