<?xml version="1.0" encoding="UTF-8"?>
<svg id="Layer1" xmlns="http://www.w3.org/2000/svg" width="1920" height="1080" version="1.1" viewBox="0 0 1920 1080">
  <!-- Generator: Adobe Illustrator 30.4.0, SVG Export Plug-In . SVG Version: 2.1.4 Build 226)  -->
  <defs>
    <style>
      .st0 {
        stroke: #333132;
        stroke-width: 2px;
      }

      .st0, .st1 {
        fill: none;
        stroke-linecap: round;
        stroke-linejoin: round;
      }
    </style>
  </defs>
  <g id="LINE">
    <line class="st0" x1="521.49" y1="884.32" x2="552.25" y2="875.44"/>
  </g>
  <g id="LINE1" data-name="LINE">
    <line class="st0" x1="552.61" y1="858.97" x2="550.48" y2="857.12"/>
  </g>
  <g id="LINE2" data-name="LINE">
    <line class="st0" x1="486.78" y1="783.5" x2="486.75" y2="787.66"/>
  </g>
  <g id="LINE3" data-name="LINE">
    <line class="st0" x1="638.38" y1="850.58" x2="669.14" y2="841.7"/>
  </g>
  <g id="LINE4" data-name="LINE">
    <line class="st0" x1="669.5" y1="825.23" x2="667.37" y2="823.38"/>
  </g>
  <g id="LINE5" data-name="LINE">
    <line class="st0" x1="541.89" y1="721.2" x2="492.67" y2="735.4"/>
  </g>
  <g id="LINE6" data-name="LINE">
    <line class="st0" x1="504.3" y1="755.37" x2="502.45" y2="751.93"/>
  </g>
  <g id="LINE7" data-name="LINE">
    <line class="st0" x1="478.15" y1="767.56" x2="479.99" y2="771"/>
  </g>
  <g id="ARC">
    <path class="st0" d="M622.16,806.32c-.22-1.95-1.98-3.35-3.93-3.13-.17.02-.33.05-.49.09"/>
  </g>
  <g id="LINE8" data-name="LINE">
    <line class="st0" x1="617.74" y1="803.28" x2="538.99" y2="826.02"/>
  </g>
  <g id="ARC1" data-name="ARC">
    <path class="st0" d="M538.99,826.02c-2.14.74-3.4,2.95-2.96,5.17"/>
  </g>
  <g id="LINE9" data-name="LINE">
    <line class="st0" x1="536.03" y1="831.18" x2="540.91" y2="858.61"/>
  </g>
  <g id="LINE10" data-name="LINE">
    <line class="st0" x1="511.59" y1="875.59" x2="497.93" y2="798.79"/>
  </g>
  <g id="LINE11" data-name="LINE">
    <line class="st0" x1="645.58" y1="756.17" x2="657.8" y2="824.87"/>
  </g>
  <g id="LINE12" data-name="LINE">
    <line class="st0" x1="628.48" y1="841.85" x2="622.16" y2="806.32"/>
  </g>
  <g id="LINE13" data-name="LINE">
    <line class="st0" x1="509.59" y1="875.12" x2="495.93" y2="798.32"/>
  </g>
  <g id="LINE14" data-name="LINE">
    <line class="st0" x1="522.75" y1="870.01" x2="522.75" y2="881.33"/>
  </g>
  <g id="ARC2" data-name="ARC">
    <path class="st0" d="M526.45,865.25c-2.11.65-3.58,2.55-3.69,4.76"/>
  </g>
  <g id="LINE15" data-name="LINE">
    <line class="st0" x1="549.82" y1="858.5" x2="526.45" y2="865.25"/>
  </g>
  <g id="ARC3" data-name="ARC">
    <path class="st0" d="M553.51,861.13c.06-1.49-1.11-2.75-2.6-2.81-.37-.01-.74.05-1.09.18"/>
  </g>
  <g id="LINE16" data-name="LINE">
    <line class="st0" x1="553.51" y1="872.45" x2="553.51" y2="861.13"/>
  </g>
  <g id="ARC4" data-name="ARC">
    <path class="st0" d="M524.31,863.4c-2.11.65-3.58,2.55-3.69,4.76"/>
  </g>
  <g id="LINE17" data-name="LINE">
    <line class="st0" x1="547.69" y1="856.66" x2="524.31" y2="863.4"/>
  </g>
  <g id="LINE18" data-name="LINE">
    <line class="st0" x1="520.62" y1="868.16" x2="520.62" y2="879.48"/>
  </g>
  <g id="LWPOLYLINE">
    <polyline class="st0" points="520.88 884.33 521.28 884.36 521.64 884.27 521.97 884.05 522.24 883.7 522.46 883.25 522.62 882.69 522.72 882.05 522.75 881.33"/>
  </g>
  <g id="LWPOLYLINE1" data-name="LWPOLYLINE">
    <polyline class="st0" points="553.51 872.45 553.48 873.17 553.38 873.81 553.22 874.37 553 874.82 552.73 875.17 552.4 875.39 552.25 875.44"/>
  </g>
  <g id="LWPOLYLINE2" data-name="LWPOLYLINE">
    <polyline class="st0" points="520.16 880.23 520.25 880.24 520.35 880.21 520.43 880.16 520.49 880.07 520.55 879.96 520.59 879.82 520.62 879.66 520.62 879.48"/>
  </g>
  <g id="ARC5" data-name="ARC">
    <path class="st0" d="M645.58,756.17c-.29-2.08-1.22-4.02-2.67-5.55"/>
  </g>
  <g id="ARC6" data-name="ARC">
    <path class="st0" d="M497.93,798.79c-.29-2.08-1.22-4.02-2.67-5.55"/>
  </g>
  <g id="ARC7" data-name="ARC">
    <path class="st0" d="M495.93,798.32c-.07-.52-.31-1.01-.67-1.39"/>
  </g>
  <g id="LINE19" data-name="LINE">
    <line class="st0" x1="520.88" y1="884.33" x2="514.14" y2="882.74"/>
  </g>
  <g id="LINE20" data-name="LINE">
    <line class="st0" x1="520.16" y1="880.23" x2="513.41" y2="878.64"/>
  </g>
  <g id="LINE21" data-name="LINE">
    <line class="st0" x1="544.25" y1="722" x2="572.88" y2="746.8"/>
  </g>
  <g id="LWPOLYLINE3" data-name="LWPOLYLINE">
    <polyline class="st0" points="592.29 749.4 589.75 749.97 587.04 750.29 584.26 750.34 581.51 750.11 578.9 749.62 576.54 748.88 574.5 747.93 572.88 746.8"/>
  </g>
  <g id="LINE22" data-name="LINE">
    <line class="st0" x1="592.29" y1="749.4" x2="616.9" y2="742.3"/>
  </g>
  <g id="LWPOLYLINE4" data-name="LWPOLYLINE">
    <polyline class="st0" points="636.31 744.9 634.68 743.76 632.65 742.81 630.29 742.08 627.68 741.59 624.93 741.36 622.15 741.4 619.44 741.72 616.9 742.3"/>
  </g>
  <g id="LINE23" data-name="LINE">
    <line class="st0" x1="636.31" y1="744.9" x2="642.91" y2="750.62"/>
  </g>
  <g id="LINE24" data-name="LINE">
    <line class="st0" x1="495.26" y1="793.24" x2="488.66" y2="787.52"/>
  </g>
  <g id="LWPOLYLINE5" data-name="LWPOLYLINE">
    <polyline class="st0" points="493.86 777.81 491.59 778.63 489.69 779.64 488.22 780.82 487.24 782.13 486.78 783.5 486.88 784.89 487.51 786.25 488.66 787.52"/>
  </g>
  <g id="LINE25" data-name="LINE">
    <line class="st0" x1="493.86" y1="777.81" x2="518.47" y2="770.71"/>
  </g>
  <g id="LWPOLYLINE6" data-name="LWPOLYLINE">
    <polyline class="st0" points="523.67 761.01 524.82 762.27 525.45 763.63 525.54 765.02 525.09 766.4 524.1 767.7 522.63 768.88 520.73 769.9 518.47 770.71"/>
  </g>
  <g id="LINE26" data-name="LINE">
    <line class="st0" x1="523.67" y1="761.01" x2="495.03" y2="736.21"/>
  </g>
  <g id="LINE27" data-name="LINE">
    <line class="st0" x1="495.26" y1="796.93" x2="488.66" y2="791.21"/>
  </g>
  <g id="ARC8" data-name="ARC">
    <path class="st0" d="M550.48,857.12c-.79-.63-1.84-.81-2.79-.47"/>
  </g>
  <g id="ARC9" data-name="ARC">
    <path class="st0" d="M486.75,787.66c.07,1.41.77,2.71,1.9,3.55"/>
  </g>
  <g id="LWPOLYLINE7" data-name="LWPOLYLINE">
    <polyline class="st0" points="509.59 875.12 509.89 876.47 510.3 877.8 510.82 879.05 511.42 880.18 512.08 881.15 512.77 881.92 513.46 882.46 514.14 882.74"/>
  </g>
  <g id="ARC10" data-name="ARC">
    <path class="st0" d="M511.59,875.59c.08,1.25.76,2.38,1.82,3.05"/>
  </g>
  <g id="LWPOLYLINE8" data-name="LWPOLYLINE">
    <polyline class="st0" points="525.08 766.4 524.82 765.97 523.67 764.7"/>
  </g>
  <g id="LWPOLYLINE9" data-name="LWPOLYLINE">
    <polyline class="st0" points="637.77 850.59 638.17 850.62 638.53 850.52 638.86 850.3 639.13 849.96 639.35 849.51 639.51 848.95 639.61 848.3 639.64 847.58"/>
  </g>
  <g id="LINE28" data-name="LINE">
    <line class="st0" x1="637.77" y1="850.59" x2="631.03" y2="849"/>
  </g>
  <g id="LWPOLYLINE10" data-name="LWPOLYLINE">
    <polyline class="st0" points="626.47 841.38 626.78 842.73 627.19 844.05 627.71 845.31 628.31 846.44 628.97 847.41 629.66 848.18 630.35 848.71 631.03 849"/>
  </g>
  <g id="ARC11" data-name="ARC">
    <path class="st0" d="M628.48,841.85c.08,1.25.76,2.38,1.82,3.05"/>
  </g>
  <g id="LINE29" data-name="LINE">
    <line class="st0" x1="637.05" y1="846.49" x2="630.3" y2="844.9"/>
  </g>
  <g id="LWPOLYLINE11" data-name="LWPOLYLINE">
    <polyline class="st0" points="637.05 846.49 637.14 846.5 637.23 846.47 637.32 846.42 637.38 846.33 637.44 846.22 637.48 846.08 637.5 845.92 637.51 845.74"/>
  </g>
  <g id="LINE30" data-name="LINE">
    <line class="st0" x1="637.51" y1="834.42" x2="637.51" y2="845.74"/>
  </g>
  <g id="LINE31" data-name="LINE">
    <line class="st0" x1="639.64" y1="836.26" x2="639.64" y2="847.58"/>
  </g>
  <g id="LINE32" data-name="LINE">
    <line class="st0" x1="626.47" y1="841.38" x2="620.16" y2="805.85"/>
  </g>
  <g id="ARC12" data-name="ARC">
    <path class="st0" d="M643.34,831.51c-2.11.65-3.58,2.55-3.69,4.76"/>
  </g>
  <g id="ARC13" data-name="ARC">
    <path class="st0" d="M641.2,829.66c-2.11.65-3.58,2.55-3.69,4.76"/>
  </g>
  <g id="ARC14" data-name="ARC">
    <path class="st0" d="M670.4,827.38c.06-1.49-1.11-2.75-2.6-2.81-.37-.01-.74.05-1.09.18"/>
  </g>
  <g id="LINE33" data-name="LINE">
    <line class="st0" x1="670.4" y1="838.7" x2="670.4" y2="827.38"/>
  </g>
  <g id="LINE34" data-name="LINE">
    <line class="st0" x1="666.71" y1="824.76" x2="643.34" y2="831.51"/>
  </g>
  <g id="LINE35" data-name="LINE">
    <line class="st0" x1="664.58" y1="822.91" x2="641.2" y2="829.66"/>
  </g>
  <g id="LWPOLYLINE12" data-name="LWPOLYLINE">
    <polyline class="st0" points="670.4 838.7 670.37 839.42 670.27 840.07 670.11 840.63 669.89 841.08 669.62 841.42 669.29 841.64 669.14 841.7"/>
  </g>
  <g id="LINE36" data-name="LINE">
    <line class="st0" x1="523.67" y1="764.7" x2="495.03" y2="739.9"/>
  </g>
  <g id="ARC15" data-name="ARC">
    <path class="st0" d="M667.37,823.38c-.79-.63-1.84-.81-2.79-.47"/>
  </g>
  <g id="ARC16" data-name="ARC">
    <path class="st0" d="M620.16,805.85c-.17-1.11-.8-2.09-1.75-2.69"/>
  </g>
  <g id="LWPOLYLINE13" data-name="LWPOLYLINE">
    <polyline class="st0" points="495.03 736.21 494.48 735.79 493.93 735.51 493.4 735.36 492.9 735.35 492.44 735.49 492.02 735.76 491.65 736.17 491.34 736.71"/>
  </g>
  <g id="ARC17" data-name="ARC">
    <path class="st0" d="M544.25,722c-.6-.65-1.49-.95-2.36-.81"/>
  </g>
  <g id="LWPOLYLINE14" data-name="LWPOLYLINE">
    <polyline class="st0" points="495.03 739.9 494.76 739.69 494.48 739.55 494.22 739.48 493.97 739.47 493.74 739.54 493.53 739.68 493.34 739.88 493.19 740.15"/>
  </g>
  <g id="LINE37" data-name="LINE">
    <line class="st0" x1="480.21" y1="767.84" x2="493.19" y2="740.15"/>
  </g>
  <g id="LINE38" data-name="LINE">
    <line class="st0" x1="478.37" y1="764.4" x2="491.34" y2="736.71"/>
  </g>
  <g id="LWPOLYLINE15" data-name="LWPOLYLINE">
    <polyline class="st0" points="480.21 767.84 479.76 769.25 479.79 770.47 480.31 771.46 481.3 772.16 482.73 772.57 484.53 772.65 486.63 772.42 488.96 771.87"/>
  </g>
  <g id="ARC18" data-name="ARC">
    <path class="st0" d="M513.57,764.77c2.38-.71,4.67-1.68,6.82-2.9"/>
  </g>
  <g id="LINE39" data-name="LINE">
    <line class="st0" x1="513.57" y1="764.77" x2="488.96" y2="771.87"/>
  </g>
  <g id="LINE40" data-name="LINE">
    <line class="st0" x1="501.37" y1="745.39" x2="497.13" y2="754.44"/>
  </g>
  <g id="LWPOLYLINE16" data-name="LWPOLYLINE">
    <polyline class="st0" points="499.76 755.65 499.06 755.81 498.43 755.88 497.89 755.85 497.46 755.73 497.16 755.52 497.01 755.23 497 754.86 497.13 754.44"/>
  </g>
  <g id="LINE41" data-name="LINE">
    <line class="st0" x1="501.6" y1="755.11" x2="499.76" y2="755.65"/>
  </g>
  <g id="LWPOLYLINE17" data-name="LWPOLYLINE">
    <polyline class="st0" points="504.23 756.32 504.37 755.9 504.36 755.53 504.2 755.24 503.9 755.03 503.48 754.9 502.94 754.88 502.3 754.95 501.6 755.11"/>
  </g>
  <g id="LINE42" data-name="LINE">
    <line class="st0" x1="504.23" y1="756.32" x2="502.45" y2="760.11"/>
  </g>
  <g id="LWPOLYLINE18" data-name="LWPOLYLINE">
    <polyline class="st0" points="504.21 760.92 503.74 761.03 503.32 761.07 502.96 761.06 502.67 760.97 502.47 760.83 502.37 760.64 502.36 760.39 502.45 760.11"/>
  </g>
  <g id="LINE43" data-name="LINE">
    <line class="st0" x1="504.21" y1="760.92" x2="505.44" y2="760.56"/>
  </g>
  <g id="ARC19" data-name="ARC">
    <path class="st0" d="M505.44,760.56c1.29-.33,2.42-1.12,3.17-2.23"/>
  </g>
  <g id="LINE44" data-name="LINE">
    <line class="st0" x1="510.38" y1="754.55" x2="508.61" y2="758.33"/>
  </g>
  <g id="LWPOLYLINE19" data-name="LWPOLYLINE">
    <polyline class="st0" points="510.97 753.7 510.66 754.08 510.38 754.55"/>
  </g>
  <g id="LINE45" data-name="LINE">
    <line class="st0" x1="498.22" y1="752.11" x2="499.76" y2="751.67"/>
  </g>
  <g id="LWPOLYLINE20" data-name="LWPOLYLINE">
    <polyline class="st0" points="499.76 751.67 500.46 751.5 501.09 751.43 501.63 751.46 502.06 751.58 502.35 751.79 502.45 751.93"/>
  </g>
  <g id="ARC20" data-name="ARC">
    <path class="st0" d="M478.37,764.4c-.59.95-.67,2.13-.22,3.16"/>
  </g>
  <g id="LINE46" data-name="LINE">
    <line class="st0" x1="506.76" y1="754.89" x2="508.37" y2="751.45"/>
  </g>
  <g id="ARC21" data-name="ARC">
    <path class="st0" d="M503.91,757.02c1.17-.36,2.17-1.11,2.86-2.12"/>
  </g>
  <g id="LWPOLYLINE21" data-name="LWPOLYLINE">
    <polyline class="st1" points="533.8 736.75 532.77 736.14 531.38 735.74 529.8 735.6 528.23 735.74 526.84 736.14 525.81 736.75 525.26 737.51 525.26 738.31 525.81 739.06"/>
  </g>
  <g id="LINE47" data-name="LINE">
    <line class="st1" x1="525.81" y1="739.06" x2="540.01" y2="751.37"/>
  </g>
  <g id="LWPOLYLINE22" data-name="LWPOLYLINE">
    <polyline class="st1" points="548.01 749.06 548.56 749.81 548.56 750.61 548.01 751.37 546.98 751.98 545.59 752.38 544.01 752.52 542.43 752.38 541.04 751.98 540.01 751.37"/>
  </g>
  <g id="LINE48" data-name="LINE">
    <line class="st1" x1="548.01" y1="749.06" x2="533.8" y2="736.75"/>
  </g>
</svg>