<?xml version="1.0" encoding="UTF-8"?>
<svg id="Layer1" xmlns="http://www.w3.org/2000/svg" width="1920" height="1080" version="1.1" viewBox="0 0 1920 1080">
  <!-- Generator: Adobe Illustrator 30.4.0, SVG Export Plug-In . SVG Version: 2.1.4 Build 226)  -->
  <defs>
    <style>
      .st0 {
        fill: #f0ebe3;
        fill-opacity: 0.5;
      }

      .st1, .st2 {
        fill: none;
      }

      .st2 {
        stroke: #333132;
        stroke-linecap: round;
        stroke-linejoin: round;
        stroke-width: 2px;
      }
    </style>
  </defs>
  <polygon class="st0" points="406.28 537.52 417.29 523.87 433.59 516.82 453.84 515.94 461.77 518.58 451.64 461.33 455.17 456.49 468.38 452.97 481.59 451.65 497 509.78 501.4 508.45 695.17 479.83 706.17 481.59 698.25 425.67 700.01 419.94 725.99 416.86 742.72 476.75 749.33 473.22 761.22 469.7 778.39 470.58 797.33 477.19 810.54 489.52 815.39 499.65 881 731.72 884.96 769.59 884.52 772.23 830.36 780.6 826.83 789.41 802.17 792.93 796.45 792.93 789.84 783.24 785.44 785.44 581.55 814.07 580.67 823.76 552.49 828.6 545 811.43 538.83 802.18 541.48 818.47 476.3 828.6 464.41 812.31 466.61 802.18 471.46 798.22 472.34 789.85 469.7 790.29 403.64 552.05 406.28 537.52"/>
  <g id="LINE">
    <line class="st2" x1="824.88" y1="746.69" x2="797.57" y2="750.6"/>
  </g>
  <g id="LINE1">
    <line class="st2" x1="797.89" y1="794" x2="825.21" y2="790.09"/>
  </g>
  <g id="LINE2">
    <line class="st2" x1="725.46" y1="416.79" x2="698.14" y2="420.7"/>
  </g>
  <g id="LINE3">
    <line class="st2" x1="579.03" y1="781.9" x2="551.72" y2="785.82"/>
  </g>
  <g id="LINE4">
    <line class="st2" x1="552.04" y1="829.21" x2="579.36" y2="825.3"/>
  </g>
  <g id="LINE5">
    <line class="st2" x1="479.61" y1="452.01" x2="452.29" y2="455.92"/>
  </g>
  <g id="LINE6">
    <line class="st2" x1="474.25" y1="830.83" x2="541.18" y2="821.25"/>
  </g>
  <g id="LINE7">
    <line class="st2" x1="582.2" y1="815.37" x2="787.02" y2="786.03"/>
  </g>
  <g id="LINE8">
    <line class="st2" x1="465.4" y1="808.4" x2="465.4" y2="812.1"/>
  </g>
  <g id="LINE9">
    <line class="st2" x1="828.05" y1="780.16" x2="884" y2="772.14"/>
  </g>
  <g id="LINE10">
    <line class="st2" x1="404.74" y1="542.31" x2="404.16" y2="544.48"/>
  </g>
  <g id="LINE11">
    <line class="st2" x1="800.74" y1="761.84" x2="800.74" y2="783.15"/>
  </g>
  <g id="LWPOLYLINE">
    <polyline class="st2" points="800.74 783.15 800.66 785.97 800.44 788.46 800.06 790.55 799.56 792.18 798.93 793.31 798.2 793.91 797.38 793.97 796.5 793.48 795.58 792.46 794.63 790.93 793.69 788.94 792.79 786.53 791.93 783.76"/>
  </g>
  <g id="LINE12">
    <line class="st2" x1="791.93" y1="783.76" x2="784.25" y2="756.4"/>
  </g>
  <g id="LINE13">
    <line class="st2" x1="764.47" y1="681.07" x2="765.16" y2="678.49"/>
  </g>
  <g id="LINE14">
    <line class="st2" x1="765.16" y1="678.49" x2="725.83" y2="538.43"/>
  </g>
  <g id="ARC">
    <path class="st2" d="M704.09,467.28c1.14,6.09,2.51,12.14,4.09,18.14"/>
  </g>
  <g id="LINE15">
    <line class="st2" x1="704.09" y1="467.28" x2="697.67" y2="433.3"/>
  </g>
  <g id="ARC1">
    <path class="st2" d="M697.35,422.72c-.57,3.51-.46,7.11.32,10.58"/>
  </g>
  <g id="LINE16">
    <line class="st2" x1="697.73" y1="421.3" x2="697.35" y2="422.72"/>
  </g>
  <g id="LWPOLYLINE1">
    <polyline class="st2" points="697.73 421.3 697.87 420.95 698.03 420.75 698.23 420.71 698.44 420.83 698.67 421.11 698.9 421.53 699.12 422.09 699.33 422.75"/>
  </g>
  <g id="LINE17">
    <line class="st2" x1="699.33" y1="422.75" x2="793.4" y2="757.72"/>
  </g>
  <g id="LWPOLYLINE2">
    <polyline class="st2" points="793.4 757.72 793.61 758.39 793.83 758.94 794.06 759.37 794.29 759.64 794.5 759.77 794.7 759.72 794.87 759.52 795 759.17"/>
  </g>
  <g id="LINE18">
    <line class="st2" x1="795" y1="759.17" x2="797.15" y2="751.2"/>
  </g>
  <g id="LWPOLYLINE3">
    <polyline class="st2" points="797.15 751.2 797.29 750.85 797.46 750.65 797.65 750.61 797.87 750.73 798.09 751.01 798.32 751.43 798.55 751.99 798.76 752.65"/>
  </g>
  <g id="LINE19">
    <line class="st2" x1="798.76" y1="752.65" x2="800.15" y2="757.61"/>
  </g>
  <g id="ARC2">
    <path class="st2" d="M800.74,761.84c-.01-1.43-.21-2.85-.59-4.22"/>
  </g>
  <g id="LINE20">
    <line class="st2" x1="828.05" y1="779.23" x2="828.05" y2="757.92"/>
  </g>
  <g id="ARC3">
    <path class="st2" d="M828.05,757.92c-.01-1.43-.21-2.85-.59-4.22"/>
  </g>
  <g id="LINE21">
    <line class="st2" x1="827.47" y1="753.7" x2="826.07" y2="748.74"/>
  </g>
  <g id="LWPOLYLINE4">
    <polyline class="st2" points="826.07 748.74 825.86 748.07 825.64 747.52 825.41 747.09 825.18 746.81 824.97 746.69 824.88 746.69"/>
  </g>
  <g id="LWPOLYLINE5">
    <polyline class="st2" points="825.21 790.09 825.52 790 826.25 789.4 826.88 788.27 827.38 786.64 827.75 784.55 827.98 782.06 828.05 779.23"/>
  </g>
  <g id="LINE22">
    <line class="st2" x1="818.95" y1="747.54" x2="726.65" y2="418.84"/>
  </g>
  <g id="LWPOLYLINE6">
    <polyline class="st2" points="726.65 418.84 726.44 418.17 726.22 417.62 725.99 417.19 725.76 416.92 725.55 416.79 725.46 416.79"/>
  </g>
  <g id="LINE23">
    <line class="st2" x1="554.89" y1="797.05" x2="554.89" y2="818.36"/>
  </g>
  <g id="LWPOLYLINE7">
    <polyline class="st2" points="554.89 818.36 554.81 821.19 554.59 823.68 554.22 825.76 553.71 827.39 553.08 828.52 552.35 829.12 551.54 829.18 550.65 828.69 549.73 827.67 548.78 826.14 547.85 824.15 546.94 821.74 546.08 818.98"/>
  </g>
  <g id="LINE24">
    <line class="st2" x1="546.08" y1="818.98" x2="538.4" y2="791.61"/>
  </g>
  <g id="LINE25">
    <line class="st2" x1="518.62" y1="716.28" x2="519.31" y2="713.7"/>
  </g>
  <g id="LINE26">
    <line class="st2" x1="519.31" y1="713.7" x2="479.99" y2="573.64"/>
  </g>
  <g id="ARC4">
    <path class="st2" d="M458.24,502.49c1.14,6.09,2.51,12.14,4.09,18.14"/>
  </g>
  <g id="LINE27">
    <line class="st2" x1="458.24" y1="502.49" x2="451.82" y2="468.51"/>
  </g>
  <g id="ARC5">
    <path class="st2" d="M451.5,457.93c-.57,3.51-.46,7.11.32,10.58"/>
  </g>
  <g id="LINE28">
    <line class="st2" x1="451.88" y1="456.52" x2="451.5" y2="457.93"/>
  </g>
  <g id="LWPOLYLINE8">
    <polyline class="st2" points="451.88 456.52 452.02 456.16 452.18 455.96 452.38 455.92 452.59 456.04 452.82 456.32 453.05 456.74 453.28 457.3 453.49 457.96"/>
  </g>
  <g id="LINE29">
    <line class="st2" x1="453.49" y1="457.96" x2="547.55" y2="792.93"/>
  </g>
  <g id="LWPOLYLINE9">
    <polyline class="st2" points="547.55 792.93 547.76 793.6 547.98 794.15 548.21 794.58 548.44 794.86 548.65 794.98 548.85 794.94 549.02 794.74 549.15 794.38"/>
  </g>
  <g id="LINE30">
    <line class="st2" x1="549.15" y1="794.38" x2="551.3" y2="786.42"/>
  </g>
  <g id="LWPOLYLINE10">
    <polyline class="st2" points="551.3 786.42 551.44 786.06 551.61 785.86 551.8 785.82 552.02 785.94 552.24 786.22 552.47 786.64 552.7 787.2 552.91 787.86"/>
  </g>
  <g id="LINE31">
    <line class="st2" x1="552.91" y1="787.86" x2="554.3" y2="792.83"/>
  </g>
  <g id="ARC6">
    <path class="st2" d="M554.89,797.05c-.01-1.43-.21-2.85-.59-4.22"/>
  </g>
  <g id="LINE32">
    <line class="st2" x1="582.2" y1="814.45" x2="582.2" y2="793.14"/>
  </g>
  <g id="ARC7">
    <path class="st2" d="M582.2,793.14c-.01-1.43-.21-2.85-.59-4.22"/>
  </g>
  <g id="LINE33">
    <line class="st2" x1="581.62" y1="788.91" x2="580.22" y2="783.95"/>
  </g>
  <g id="LWPOLYLINE11">
    <polyline class="st2" points="580.22 783.95 580.01 783.29 579.79 782.73 579.56 782.31 579.33 782.03 579.12 781.91 579.03 781.9"/>
  </g>
  <g id="LWPOLYLINE12">
    <polyline class="st2" points="579.36 825.3 579.67 825.21 580.4 824.61 581.03 823.48 581.53 821.85 581.9 819.76 582.13 817.27 582.2 814.45"/>
  </g>
  <g id="LINE34">
    <line class="st2" x1="573.11" y1="782.75" x2="480.8" y2="454.05"/>
  </g>
  <g id="LWPOLYLINE13">
    <polyline class="st2" points="480.8 454.05 480.59 453.39 480.37 452.83 480.14 452.41 479.91 452.13 479.7 452.01 479.61 452.01"/>
  </g>
  <g id="LINE35">
    <line class="st2" x1="492.91" y1="771.45" x2="432.23" y2="555.38"/>
  </g>
  <g id="LWPOLYLINE14">
    <polyline class="st2" points="506.57 769.5 506.77 771.24 506.4 772.91 505.49 774.4 504.12 775.56 502.39 776.31 500.44 776.59 498.44 776.37 496.55 775.68 494.91 774.56 493.66 773.11 492.91 771.45"/>
  </g>
  <g id="LINE36">
    <line class="st2" x1="445.89" y1="553.42" x2="506.57" y2="769.5"/>
  </g>
  <g id="LWPOLYLINE15">
    <polyline class="st2" points="432.23 555.38 432.03 553.64 432.4 551.96 433.31 550.48 434.69 549.32 436.41 548.57 438.36 548.29 440.36 548.51 442.25 549.2 443.89 550.32 445.14 551.76 445.89 553.42"/>
  </g>
  <g id="LINE37">
    <line class="st2" x1="609.01" y1="754.83" x2="548.33" y2="538.75"/>
  </g>
  <g id="LWPOLYLINE16">
    <polyline class="st2" points="622.66 752.87 622.86 754.61 622.5 756.29 621.59 757.77 620.21 758.93 618.48 759.68 616.54 759.96 614.54 759.74 612.64 759.05 611.01 757.93 609.76 756.49 609.01 754.83"/>
  </g>
  <g id="LINE38">
    <line class="st2" x1="561.99" y1="536.8" x2="622.66" y2="752.87"/>
  </g>
  <g id="LWPOLYLINE17">
    <polyline class="st2" points="548.33 538.75 548.13 537.01 548.5 535.34 549.41 533.86 550.78 532.69 552.51 531.94 554.45 531.66 556.45 531.88 558.35 532.57 559.99 533.69 561.23 535.14 561.99 536.8"/>
  </g>
  <g id="LINE39">
    <line class="st2" x1="663.64" y1="747" x2="602.96" y2="530.93"/>
  </g>
  <g id="LWPOLYLINE18">
    <polyline class="st2" points="677.3 745.04 677.5 746.78 677.13 748.46 676.22 749.94 674.85 751.1 673.12 751.86 671.17 752.13 669.17 751.92 667.28 751.22 665.64 750.11 664.39 748.66 663.64 747"/>
  </g>
  <g id="LINE40">
    <line class="st2" x1="616.62" y1="528.97" x2="677.3" y2="745.04"/>
  </g>
  <g id="LWPOLYLINE19">
    <polyline class="st2" points="602.96 530.93 602.76 529.19 603.13 527.51 604.04 526.03 605.41 524.87 607.14 524.12 609.09 523.84 611.09 524.06 612.98 524.75 614.62 525.86 615.87 527.31 616.62 528.97"/>
  </g>
  <g id="LINE41">
    <line class="st2" x1="718.27" y1="739.18" x2="657.6" y2="523.1"/>
  </g>
  <g id="LWPOLYLINE20">
    <polyline class="st2" points="731.93 737.22 732.13 738.96 731.76 740.64 730.85 742.12 729.48 743.28 727.75 744.03 725.81 744.31 723.8 744.09 721.91 743.4 720.27 742.28 719.03 740.84 718.27 739.18"/>
  </g>
  <g id="LINE42">
    <line class="st2" x1="671.25" y1="521.15" x2="731.93" y2="737.22"/>
  </g>
  <g id="LWPOLYLINE21">
    <polyline class="st2" points="657.6 523.1 657.39 521.36 657.76 519.69 658.67 518.21 660.05 517.04 661.78 516.29 663.72 516.01 665.72 516.23 667.62 516.92 669.25 518.04 670.5 519.49 671.25 521.15"/>
  </g>
  <g id="LINE43">
    <line class="st2" x1="834.37" y1="722.55" x2="773.69" y2="506.47"/>
  </g>
  <g id="LWPOLYLINE22">
    <polyline class="st2" points="848.03 720.59 848.23 722.33 847.86 724.01 846.95 725.49 845.57 726.65 843.84 727.4 841.9 727.68 839.9 727.46 838 726.77 836.37 725.65 835.12 724.21 834.37 722.55"/>
  </g>
  <g id="LINE44">
    <line class="st2" x1="787.35" y1="504.52" x2="848.03" y2="720.59"/>
  </g>
  <g id="LWPOLYLINE23">
    <polyline class="st2" points="773.69 506.47 773.49 504.73 773.86 503.06 774.77 501.58 776.14 500.41 777.87 499.66 779.81 499.39 781.82 499.6 783.71 500.3 785.35 501.41 786.6 502.86 787.35 504.52"/>
  </g>
  <g id="ARC8">
    <path class="st2" d="M465.07,525.58c-2.47-7.06-9.66-11.33-17.05-10.11"/>
  </g>
  <g id="LINE45">
    <line class="st2" x1="478.28" y1="572.63" x2="465.07" y2="525.58"/>
  </g>
  <g id="ARC9">
    <path class="st2" d="M478.28,572.63c.25.71.97,1.13,1.7,1.01"/>
  </g>
  <g id="ARC10">
    <path class="st2" d="M505.38,507.25c-3.26.39-6.26,2.01-8.37,4.53"/>
  </g>
  <g id="LINE46">
    <line class="st2" x1="505.38" y1="507.25" x2="693.87" y2="480.25"/>
  </g>
  <g id="ARC11">
    <path class="st2" d="M710.92,490.36c-2.47-7.06-9.66-11.33-17.05-10.11"/>
  </g>
  <g id="LINE47">
    <line class="st2" x1="724.13" y1="537.42" x2="710.92" y2="490.36"/>
  </g>
  <g id="ARC12">
    <path class="st2" d="M724.13,537.42c.25.71.97,1.13,1.7,1.01"/>
  </g>
  <g id="ARC13">
    <path class="st2" d="M751.23,472.04c-3.26.39-6.26,2.01-8.37,4.53"/>
  </g>
  <g id="LINE48">
    <line class="st2" x1="751.23" y1="472.04" x2="763.53" y2="470.28"/>
  </g>
  <g id="LWPOLYLINE24">
    <polyline class="st2" points="763.53 470.28 768.18 469.85 772.9 469.88 777.63 470.37 782.31 471.31 786.88 472.7 791.29 474.51 795.48 476.73 799.39 479.32 802.98 482.25 806.2 485.48 809.01 488.98 811.38 492.7 813.27 496.59 814.67 500.61"/>
  </g>
  <g id="LINE49">
    <line class="st2" x1="814.67" y1="500.61" x2="879.51" y2="731.54"/>
  </g>
  <g id="ARC14">
    <path class="st2" d="M764.66,676.68c-.62.04-1.1.58-1.06,1.2,0,.07.01.13.03.2"/>
  </g>
  <g id="LINE50">
    <line class="st2" x1="782.54" y1="745.43" x2="763.63" y2="678.08"/>
  </g>
  <g id="ARC15">
    <path class="st2" d="M518.81,711.89c-.62.04-1.1.58-1.06,1.2,0,.07.01.13.03.2"/>
  </g>
  <g id="LINE51">
    <line class="st2" x1="536.69" y1="780.64" x2="517.78" y2="713.29"/>
  </g>
  <g id="LINE52">
    <line class="st2" x1="469.77" y1="790.22" x2="404.92" y2="559.29"/>
  </g>
  <g id="LWPOLYLINE25">
    <polyline class="st2" points="404.92 559.29 404.04 555.2 403.68 551.09 403.86 547.01 404.56 543.01 405.79 539.14 407.52 535.44 409.73 531.98 412.4 528.78 415.49 525.9 418.96 523.36 422.76 521.2 426.86 519.44 431.2 518.11 435.73 517.23"/>
  </g>
  <g id="LINE53">
    <line class="st2" x1="435.73" y1="517.23" x2="448.02" y2="515.47"/>
  </g>
  <g id="LINE54">
    <line class="st2" x1="469.18" y1="792.4" x2="404.33" y2="561.47"/>
  </g>
  <g id="LINE55">
    <line class="st2" x1="470.34" y1="793.03" x2="474.8" y2="825.11"/>
  </g>
  <g id="LINE56">
    <line class="st2" x1="469.32" y1="793.1" x2="473.78" y2="825.18"/>
  </g>
  <g id="LINE57">
    <line class="st2" x1="537.26" y1="783.44" x2="541.72" y2="815.53"/>
  </g>
  <g id="ARC16">
    <path class="st2" d="M470.34,793.03c-.13-.95-.32-1.88-.57-2.8"/>
  </g>
  <g id="ARC17">
    <path class="st2" d="M469.32,793.1c-.03-.24-.08-.47-.14-.7"/>
  </g>
  <g id="ARC18">
    <path class="st2" d="M537.26,783.44c-.13-.95-.32-1.88-.57-2.8"/>
  </g>
  <g id="LWPOLYLINE26">
    <polyline class="st2" points="474.8 825.11 474.96 826.57 475.01 827.94 474.96 829.12 474.8 830.03 474.55 830.62 474.23 830.83 473.85 830.67 473.44 830.13"/>
  </g>
  <g id="LWPOLYLINE27">
    <polyline class="st2" points="541.18 821.25 541.48 821.03 541.72 820.45 541.88 819.53 541.93 818.35 541.88 816.99 541.72 815.53"/>
  </g>
  <g id="LWPOLYLINE28">
    <polyline class="st2" points="473.78 825.18 473.82 825.55 473.84 825.89 473.82 826.18 473.78 826.41 473.72 826.56 473.64 826.61 473.55 826.57 473.44 826.44"/>
  </g>
  <g id="LINE58">
    <line class="st2" x1="467.6" y1="816.23" x2="473.44" y2="826.44"/>
  </g>
  <g id="ARC19">
    <path class="st2" d="M467.09,801.52c-2.4,4.66-2.21,10.23.51,14.71"/>
  </g>
  <g id="LINE59">
    <line class="st2" x1="469.75" y1="796.19" x2="467.09" y2="801.52"/>
  </g>
  <g id="LINE60">
    <line class="st2" x1="467.6" y1="819.92" x2="473.44" y2="830.13"/>
  </g>
  <g id="LINE61">
    <line class="st2" x1="783.11" y1="748.23" x2="787.57" y2="780.31"/>
  </g>
  <g id="ARC20">
    <path class="st2" d="M783.11,748.23c-.13-.95-.32-1.88-.57-2.8"/>
  </g>
  <g id="LWPOLYLINE29">
    <polyline class="st2" points="787.02 786.03 787.33 785.82 787.57 785.23 787.73 784.32 787.78 783.14 787.73 781.77 787.57 780.31"/>
  </g>
  <g id="ARC21">
    <path class="st2" d="M465.4,812.1c.03,2.76.79,5.46,2.2,7.83"/>
  </g>
  <g id="LINE62">
    <line class="st2" x1="518.22" y1="714.06" x2="518.81" y2="711.89"/>
  </g>
  <g id="LINE63">
    <line class="st2" x1="518.22" y1="714.06" x2="518.01" y2="714.11"/>
  </g>
  <g id="LINE64">
    <line class="st2" x1="519.26" y1="713.91" x2="518.22" y2="714.06"/>
  </g>
  <g id="LINE65">
    <line class="st2" x1="884.55" y1="766.42" x2="880.09" y2="734.34"/>
  </g>
  <g id="ARC22">
    <path class="st2" d="M880.09,734.34c-.13-.95-.32-1.88-.57-2.8"/>
  </g>
  <g id="LWPOLYLINE30">
    <polyline class="st2" points="884 772.14 884.3 771.93 884.55 771.35 884.7 770.43 884.76 769.25 884.7 767.88 884.55 766.42"/>
  </g>
  <g id="LINE66">
    <line class="st2" x1="764.07" y1="678.85" x2="763.86" y2="678.9"/>
  </g>
  <g id="LINE67">
    <line class="st2" x1="765.11" y1="678.7" x2="764.07" y2="678.85"/>
  </g>
  <g id="ARC23">
    <path class="st2" d="M404.16,544.48c-1.48,5.57-1.42,11.44.17,16.99"/>
  </g>
  <g id="LWPOLYLINE31">
    <polyline class="st1" points="539.82 746.64 541.23 746.08 542.24 745.34 542.77 744.48 542.77 743.58 542.24 742.72 541.23 741.97 539.82 741.41 538.15 741.08 536.35 741.02 534.6 741.22 533.04 741.67 531.81 742.33 531.03 743.14 530.76 744.03 531.03 744.92 531.81 745.73 533.04 746.39 534.6 746.84 536.35 747.04 538.15 746.97 539.82 746.64"/>
  </g>
  <g id="LWPOLYLINE32">
    <polyline class="st1" points="662.86 711.12 664.27 710.56 665.28 709.82 665.81 708.96 665.81 708.06 665.28 707.2 664.27 706.45 662.86 705.89 661.19 705.56 659.39 705.5 657.64 705.7 656.08 706.15 654.85 706.81 654.07 707.62 653.8 708.51 654.07 709.4 654.85 710.21 656.08 710.87 657.64 711.32 659.39 711.52 661.19 711.45 662.86 711.12"/>
  </g>
  <g id="LWPOLYLINE33">
    <polyline class="st1" points="785.9 675.6 787.31 675.04 788.32 674.3 788.86 673.44 788.86 672.54 788.32 671.68 787.31 670.94 785.9 670.37 784.23 670.05 782.43 669.98 780.68 670.18 779.12 670.63 777.9 671.29 777.11 672.1 776.85 672.99 777.11 673.88 777.9 674.69 779.12 675.35 780.68 675.8 782.43 676 784.23 675.93 785.9 675.6"/>
  </g>
</svg>