<?xml version="1.0" encoding="UTF-8"?>
<svg id="katman_1" xmlns="http://www.w3.org/2000/svg" width="1920" height="1080" version="1.1" viewBox="0 0 1920 1080">
  <!-- Generator: Adobe Illustrator 30.4.0, SVG Export Plug-In . SVG Version: 2.1.4 Build 226)  -->
  <defs>
    <style>
      .st0 {
        stroke: #333132;
        stroke-width: 2px;
      }

      .st0, .st1 {
        fill: none;
        stroke-linecap: round;
        stroke-linejoin: round;
      }
    </style>
  </defs>
  <g id="LINE">
    <line class="st0" x1="1421.51" y1="345.5" x2="1421.51" y2="341.81"/>
  </g>
  <g id="LINE1" data-name="LINE">
    <line class="st0" x1="1299.48" y1="329" x2="1301.62" y2="330.85"/>
  </g>
  <g id="LINE2" data-name="LINE">
    <line class="st0" x1="1349.93" y1="29.03" x2="1349.93" y2="16.72"/>
  </g>
  <g id="LINE3" data-name="LINE">
    <line class="st0" x1="1374.54" y1="9.62" x2="1374.54" y2="21.92"/>
  </g>
  <g id="LINE4" data-name="LINE">
    <line class="st0" x1="1374.54" y1="21.92" x2="1422.81" y2="280.74"/>
  </g>
  <g id="ARC">
    <path class="st0" d="M1423.76,291.19c0-3.5-.31-7-.94-10.45"/>
  </g>
  <g id="LINE5" data-name="LINE">
    <line class="st0" x1="1423.76" y1="291.19" x2="1423.76" y2="293.17"/>
  </g>
  <g id="ARC1" data-name="ARC">
    <path class="st0" d="M1420.06,297.93c2.11-.65,3.58-2.55,3.69-4.76"/>
  </g>
  <g id="LINE6" data-name="LINE">
    <line class="st0" x1="1420.06" y1="297.93" x2="1386.84" y2="307.52"/>
  </g>
  <g id="LINE7" data-name="LINE">
    <line class="st0" x1="1304.41" y1="331.32" x2="1337.63" y2="321.73"/>
  </g>
  <g id="ARC2" data-name="ARC">
    <path class="st0" d="M1300.71,328.69c-.06,1.49,1.11,2.75,2.6,2.81.37.01.74-.05,1.09-.18"/>
  </g>
  <g id="LINE8" data-name="LINE">
    <line class="st0" x1="1300.71" y1="328.69" x2="1300.71" y2="326.71"/>
  </g>
  <g id="ARC3" data-name="ARC">
    <path class="st0" d="M1301.66,315.72c-.62,3.63-.93,7.31-.94,10.99"/>
  </g>
  <g id="LINE9" data-name="LINE">
    <line class="st0" x1="1301.66" y1="315.72" x2="1349.93" y2="29.03"/>
  </g>
  <g id="LWPOLYLINE">
    <polyline class="st0" points="1365.87 81.34 1365.43 80.27 1364.61 79.52 1363.5 79.2 1362.24 79.34 1360.97 79.93 1359.86 80.89 1359.04 82.11 1358.6 83.44"/>
  </g>
  <g id="LINE10" data-name="LINE">
    <line class="st0" x1="1358.6" y1="83.44" x2="1321.31" y2="304.88"/>
  </g>
  <g id="ARC4" data-name="ARC">
    <path class="st0" d="M1321.31,304.88c-.39,1.47.49,2.98,1.96,3.37.55.15,1.14.12,1.67-.08"/>
  </g>
  <g id="LINE11" data-name="LINE">
    <line class="st0" x1="1324.95" y1="308.16" x2="1399.52" y2="286.63"/>
  </g>
  <g id="ARC5" data-name="ARC">
    <path class="st0" d="M1399.52,286.63c2.34-.69,3.87-2.95,3.63-5.38"/>
  </g>
  <g id="LINE12" data-name="LINE">
    <line class="st0" x1="1403.16" y1="281.25" x2="1365.87" y2="81.34"/>
  </g>
  <g id="LINE13" data-name="LINE">
    <line class="st0" x1="1347.8" y1="27.18" x2="1299.53" y2="313.87"/>
  </g>
  <g id="ARC6" data-name="ARC">
    <path class="st0" d="M1349.93,16.72c-.02-1.22-.23-2.43-.62-3.59"/>
  </g>
  <g id="LINE14" data-name="LINE">
    <line class="st0" x1="1347.8" y1="16.11" x2="1347.8" y2="27.18"/>
  </g>
  <g id="ARC7" data-name="ARC">
    <path class="st0" d="M1374.54,9.62c-.03-1.59-.37-3.17-1.01-4.63"/>
  </g>
  <g id="LINE15" data-name="LINE">
    <line class="st0" x1="1363.67" y1="79.22" x2="1363.74" y2="79.5"/>
  </g>
  <g id="LINE16" data-name="LINE">
    <line class="st0" x1="1363.74" y1="79.5" x2="1401.03" y2="279.4"/>
  </g>
  <g id="LINE17" data-name="LINE">
    <line class="st0" x1="1388.97" y1="313.06" x2="1420.94" y2="340.74"/>
  </g>
  <g id="LWPOLYLINE1" data-name="LWPOLYLINE">
    <polyline class="st0" points="1419.38 343.65 1420.06 343.41 1420.63 343.1 1421.07 342.75 1421.37 342.36 1421.5 341.95 1421.48 341.53 1421.29 341.12 1420.94 340.74"/>
  </g>
  <g id="LINE18" data-name="LINE">
    <line class="st0" x1="1419.38" y1="343.65" x2="1377.55" y2="355.73"/>
  </g>
  <g id="ARC8" data-name="ARC">
    <path class="st0" d="M1371.73,354.95c1.73,1.12,3.86,1.4,5.82.78"/>
  </g>
  <g id="LINE19" data-name="LINE">
    <line class="st0" x1="1371.73" y1="354.95" x2="1339.76" y2="327.26"/>
  </g>
  <g id="ARC9" data-name="ARC">
    <path class="st0" d="M1371.73,358.64c1.73,1.12,3.86,1.4,5.82.78"/>
  </g>
  <g id="ARC10" data-name="ARC">
    <path class="st0" d="M1335.7,322.29c.37,3.26,1.8,6.3,4.06,8.67"/>
  </g>
  <g id="ARC11" data-name="ARC">
    <path class="st0" d="M1337.63,321.73c-.02,2.05.74,4.03,2.13,5.54"/>
  </g>
  <g id="LINE20" data-name="LINE">
    <line class="st0" x1="1339.76" y1="330.96" x2="1371.73" y2="358.64"/>
  </g>
  <g id="LINE21" data-name="LINE">
    <line class="st0" x1="1419.38" y1="347.34" x2="1377.55" y2="359.42"/>
  </g>
  <g id="LWPOLYLINE2" data-name="LWPOLYLINE">
    <polyline class="st0" points="1421.51 345.5 1421.5 345.64 1421.37 346.05 1421.07 346.44 1420.63 346.8 1420.06 347.1 1419.38 347.34"/>
  </g>
  <g id="ARC12" data-name="ARC">
    <path class="st0" d="M1299.53,313.87c-.62,3.63-.93,7.31-.94,10.99"/>
  </g>
  <g id="LINE22" data-name="LINE">
    <line class="st0" x1="1298.58" y1="324.87" x2="1298.58" y2="326.85"/>
  </g>
  <g id="LWPOLYLINE3" data-name="LWPOLYLINE">
    <polyline class="st0" points="1322.82 306.32 1322.02 306.46 1321.38 306.44"/>
  </g>
  <g id="ARC13" data-name="ARC">
    <path class="st0" d="M1298.58,326.85c-.03.82.3,1.61.9,2.16"/>
  </g>
  <g id="LINE23" data-name="LINE">
    <line class="st0" x1="1397.39" y1="284.79" x2="1322.82" y2="306.32"/>
  </g>
  <g id="ARC14" data-name="ARC">
    <path class="st0" d="M1386.84,307.52c-.02,2.05.74,4.03,2.13,5.54"/>
  </g>
  <g id="ARC15" data-name="ARC">
    <path class="st0" d="M1397.39,284.79c2.34-.69,3.87-2.95,3.63-5.38"/>
  </g>
  <g id="LINE24" data-name="LINE">
    <line class="st0" x1="1375.15" y1="8.21" x2="1381" y2="6.52"/>
  </g>
  <g id="LINE25" data-name="LINE">
    <line class="st0" x1="1375.15" y1="4.52" x2="1375.15" y2="8.21"/>
  </g>
  <g id="LINE26" data-name="LINE">
    <line class="st0" x1="1349.32" y1="11.98" x2="1375.15" y2="4.52"/>
  </g>
  <g id="LINE27" data-name="LINE">
    <line class="st0" x1="1349.32" y1="15.67" x2="1349.32" y2="11.98"/>
  </g>
  <g id="LINE28" data-name="LINE">
    <line class="st0" x1="1343.47" y1="17.36" x2="1349.32" y2="15.67"/>
  </g>
  <g id="LINE29" data-name="LINE">
    <line class="st0" x1="1343.47" y1="17.36" x2="1343.47" y2="7.18"/>
  </g>
  <g id="ARC16" data-name="ARC">
    <path class="st0" d="M1345.11,3.64c-.99.91-1.58,2.19-1.64,3.54"/>
  </g>
  <g id="LWPOLYLINE4" data-name="LWPOLYLINE">
    <polyline class="st0" points="1345.11 3.64 1347.94 1.13 1350.95 -1.11 1354.08 -3.06 1357.3 -4.69 1360.58 -5.99 1363.89 -6.95 1367.17 -7.54 1370.39 -7.77 1373.53 -7.63 1376.53 -7.12 1379.36 -6.25"/>
  </g>
  <g id="LINE30" data-name="LINE">
    <line class="st0" x1="1381" y1="-3.66" x2="1381" y2="6.52"/>
  </g>
  <g id="LINE31" data-name="LINE">
    <line class="st0" x1="1343.47" y1="17.36" x2="1307.24" y2="-14.02"/>
  </g>
  <g id="LINE32" data-name="LINE">
    <line class="st0" x1="1374.31" y1="7.48" x2="1375.15" y2="8.21"/>
  </g>
  <g id="LINE33" data-name="LINE">
    <line class="st1" x1="1395.89" y1="342.85" x2="1383.28" y2="331.93"/>
  </g>
  <g id="LWPOLYLINE5" data-name="LWPOLYLINE">
    <polyline class="st1" points="1383.28 331.93 1382.37 331.36 1381.16 330.97 1379.77 330.78 1378.32 330.82 1376.98 331.08 1375.85 331.53 1375.07 332.14 1374.69 332.84 1374.77 333.56 1375.29 334.23"/>
  </g>
  <g id="LINE34" data-name="LINE">
    <line class="st1" x1="1375.29" y1="334.23" x2="1387.89" y2="345.15"/>
  </g>
  <g id="LWPOLYLINE6" data-name="LWPOLYLINE">
    <polyline class="st1" points="1387.89 345.15 1388.8 345.72 1390.02 346.11 1391.41 346.3 1392.85 346.26 1394.2 346 1395.33 345.54 1396.11 344.94 1396.49 344.24 1396.41 343.52 1395.89 342.85"/>
  </g>
</svg>