<?xml version="1.0" encoding="UTF-8"?>
<svg id="Layer1" xmlns="http://www.w3.org/2000/svg" width="1920" height="1080" version="1.1" viewBox="0 0 1920 1080">
  <!-- Generator: Adobe Illustrator 30.4.0, SVG Export Plug-In . SVG Version: 2.1.4 Build 226)  -->
  <defs>
    <style>
      .st0 {
        stroke: #333132;
        stroke-width: 2px;
      }

      .st0, .st1 {
        fill: none;
        stroke-linecap: round;
        stroke-linejoin: round;
      }
    </style>
  </defs>
  <g id="LINE">
    <line class="st0" x1="1680.42" y1="519.05" x2="1678.29" y2="517.2"/>
  </g>
  <g id="LINE1" data-name="LINE">
    <line class="st0" x1="1664.68" y1="539.96" x2="1680.06" y2="535.52"/>
  </g>
  <g id="LINE2" data-name="LINE">
    <line class="st0" x1="1726.56" y1="505.73" x2="1724.43" y2="503.88"/>
  </g>
  <g id="LINE3" data-name="LINE">
    <line class="st0" x1="1710.82" y1="526.64" x2="1726.2" y2="522.2"/>
  </g>
  <g id="LINE4" data-name="LINE">
    <line class="st0" x1="1652.07" y1="390.87" x2="1590.55" y2="408.63"/>
  </g>
  <g id="LINE5" data-name="LINE">
    <line class="st0" x1="1576.03" y1="440.79" x2="1577.87" y2="444.23"/>
  </g>
  <g id="LINE6" data-name="LINE">
    <line class="st0" x1="1608.33" y1="426.83" x2="1607.98" y2="426.18"/>
  </g>
  <g id="ARC">
    <path class="st0" d="M1694.6,482.38c-.22-1.95-1.98-3.35-3.93-3.13-.17.02-.33.05-.49.09"/>
  </g>
  <g id="LINE7" data-name="LINE">
    <line class="st0" x1="1690.18" y1="479.34" x2="1666.8" y2="486.09"/>
  </g>
  <g id="ARC1" data-name="ARC">
    <path class="st0" d="M1666.8,486.09c-2.14.74-3.4,2.95-2.96,5.17"/>
  </g>
  <g id="LINE8" data-name="LINE">
    <line class="st0" x1="1663.84" y1="491.26" x2="1668.72" y2="518.69"/>
  </g>
  <g id="LINE9" data-name="LINE">
    <line class="st0" x1="1654.78" y1="531.23" x2="1641.12" y2="454.43"/>
  </g>
  <g id="LINE10" data-name="LINE">
    <line class="st0" x1="1702.64" y1="436.67" x2="1714.86" y2="505.37"/>
  </g>
  <g id="LINE11" data-name="LINE">
    <line class="st0" x1="1700.92" y1="517.91" x2="1694.6" y2="482.38"/>
  </g>
  <g id="LINE12" data-name="LINE">
    <line class="st0" x1="1652.77" y1="530.76" x2="1639.12" y2="453.96"/>
  </g>
  <g id="ARC2" data-name="ARC">
    <path class="st0" d="M1667.5,519.04c-2.11.65-3.58,2.55-3.69,4.76"/>
  </g>
  <g id="ARC3" data-name="ARC">
    <path class="st0" d="M1669.63,520.89c-2.11.65-3.58,2.55-3.69,4.76"/>
  </g>
  <g id="ARC4" data-name="ARC">
    <path class="st0" d="M1681.32,521.2c.06-1.49-1.11-2.75-2.6-2.81-.37-.01-.74.05-1.09.18"/>
  </g>
  <g id="LINE13" data-name="LINE">
    <line class="st0" x1="1681.32" y1="532.52" x2="1681.32" y2="521.2"/>
  </g>
  <g id="LINE14" data-name="LINE">
    <line class="st0" x1="1665.94" y1="525.64" x2="1665.94" y2="536.96"/>
  </g>
  <g id="LINE15" data-name="LINE">
    <line class="st0" x1="1677.63" y1="518.58" x2="1669.63" y2="520.89"/>
  </g>
  <g id="LINE16" data-name="LINE">
    <line class="st0" x1="1675.5" y1="516.73" x2="1667.5" y2="519.04"/>
  </g>
  <g id="LINE17" data-name="LINE">
    <line class="st0" x1="1663.81" y1="523.8" x2="1663.81" y2="535.12"/>
  </g>
  <g id="ARC5" data-name="ARC">
    <path class="st0" d="M1678.29,517.2c-.79-.63-1.84-.81-2.79-.47"/>
  </g>
  <g id="LWPOLYLINE">
    <polyline class="st0" points="1664.07 539.97 1664.47 540 1664.83 539.9 1665.15 539.68 1665.43 539.34 1665.65 538.89 1665.81 538.33 1665.91 537.68 1665.94 536.96"/>
  </g>
  <g id="LWPOLYLINE1" data-name="LWPOLYLINE">
    <polyline class="st0" points="1681.32 532.52 1681.29 533.24 1681.19 533.89 1681.03 534.45 1680.81 534.9 1680.53 535.24 1680.21 535.46 1680.06 535.52"/>
  </g>
  <g id="LWPOLYLINE2" data-name="LWPOLYLINE">
    <polyline class="st0" points="1663.34 535.87 1663.44 535.88 1663.53 535.85 1663.61 535.8 1663.68 535.71 1663.74 535.6 1663.78 535.46 1663.8 535.3 1663.81 535.12"/>
  </g>
  <g id="ARC6" data-name="ARC">
    <path class="st0" d="M1641.12,454.43c-.29-2.08-1.22-4.02-2.67-5.55"/>
  </g>
  <g id="ARC7" data-name="ARC">
    <path class="st0" d="M1639.12,453.96c-.07-.52-.31-1.01-.67-1.39"/>
  </g>
  <g id="ARC8" data-name="ARC">
    <path class="st0" d="M1702.64,436.67c-.29-2.08-1.22-4.02-2.67-5.55"/>
  </g>
  <g id="LINE18" data-name="LINE">
    <line class="st0" x1="1664.07" y1="539.97" x2="1657.33" y2="538.38"/>
  </g>
  <g id="LINE19" data-name="LINE">
    <line class="st0" x1="1663.34" y1="535.87" x2="1656.6" y2="534.28"/>
  </g>
  <g id="LINE20" data-name="LINE">
    <line class="st0" x1="1654.43" y1="391.68" x2="1699.97" y2="431.12"/>
  </g>
  <g id="LINE21" data-name="LINE">
    <line class="st0" x1="1638.45" y1="448.88" x2="1592.91" y2="409.44"/>
  </g>
  <g id="LINE22" data-name="LINE">
    <line class="st0" x1="1638.45" y1="452.57" x2="1592.91" y2="413.13"/>
  </g>
  <g id="LINE23" data-name="LINE">
    <line class="st0" x1="1712.08" y1="512.32" x2="1712.08" y2="523.64"/>
  </g>
  <g id="ARC9" data-name="ARC">
    <path class="st0" d="M1715.77,507.57c-2.11.65-3.58,2.55-3.69,4.76"/>
  </g>
  <g id="LINE24" data-name="LINE">
    <line class="st0" x1="1723.77" y1="505.26" x2="1715.77" y2="507.57"/>
  </g>
  <g id="ARC10" data-name="ARC">
    <path class="st0" d="M1727.46,507.88c.06-1.49-1.11-2.75-2.6-2.81-.37-.01-.74.05-1.09.18"/>
  </g>
  <g id="LINE25" data-name="LINE">
    <line class="st0" x1="1727.46" y1="519.2" x2="1727.46" y2="507.88"/>
  </g>
  <g id="ARC11" data-name="ARC">
    <path class="st0" d="M1713.64,505.72c-2.11.65-3.58,2.55-3.69,4.76"/>
  </g>
  <g id="LWPOLYLINE3" data-name="LWPOLYLINE">
    <polyline class="st0" points="1652.77 530.76 1653.07 532.11 1653.49 533.43 1654.01 534.69 1654.61 535.82 1655.27 536.79 1655.96 537.56 1656.65 538.09 1657.33 538.38"/>
  </g>
  <g id="ARC12" data-name="ARC">
    <path class="st0" d="M1654.78,531.23c.08,1.25.76,2.38,1.82,3.05"/>
  </g>
  <g id="LINE26" data-name="LINE">
    <line class="st0" x1="1721.64" y1="503.41" x2="1713.64" y2="505.72"/>
  </g>
  <g id="LINE27" data-name="LINE">
    <line class="st0" x1="1709.95" y1="510.48" x2="1709.95" y2="521.8"/>
  </g>
  <g id="ARC13" data-name="ARC">
    <path class="st0" d="M1724.43,503.88c-.79-.63-1.84-.81-2.79-.47"/>
  </g>
  <g id="LWPOLYLINE4" data-name="LWPOLYLINE">
    <polyline class="st0" points="1710.21 526.65 1710.61 526.68 1710.97 526.58 1711.29 526.36 1711.57 526.02 1711.79 525.57 1711.95 525.01 1712.05 524.36 1712.08 523.64"/>
  </g>
  <g id="LWPOLYLINE5" data-name="LWPOLYLINE">
    <polyline class="st0" points="1727.46 519.2 1727.43 519.92 1727.33 520.57 1727.17 521.13 1726.95 521.58 1726.67 521.92 1726.35 522.14 1726.2 522.2"/>
  </g>
  <g id="LWPOLYLINE6" data-name="LWPOLYLINE">
    <polyline class="st0" points="1709.48 522.55 1709.58 522.56 1709.67 522.53 1709.75 522.48 1709.82 522.39 1709.88 522.28 1709.92 522.14 1709.94 521.98 1709.95 521.8"/>
  </g>
  <g id="LINE28" data-name="LINE">
    <line class="st0" x1="1698.91" y1="517.44" x2="1692.6" y2="481.91"/>
  </g>
  <g id="LINE29" data-name="LINE">
    <line class="st0" x1="1710.21" y1="526.65" x2="1703.47" y2="525.06"/>
  </g>
  <g id="LINE30" data-name="LINE">
    <line class="st0" x1="1709.48" y1="522.55" x2="1702.74" y2="520.96"/>
  </g>
  <g id="ARC14" data-name="ARC">
    <path class="st0" d="M1692.6,481.91c-.17-1.11-.8-2.09-1.75-2.69"/>
  </g>
  <g id="LWPOLYLINE7" data-name="LWPOLYLINE">
    <polyline class="st0" points="1698.91 517.44 1699.22 518.79 1699.63 520.11 1700.15 521.37 1700.75 522.5 1701.41 523.47 1702.1 524.24 1702.79 524.77 1703.47 525.06"/>
  </g>
  <g id="ARC15" data-name="ARC">
    <path class="st0" d="M1700.92,517.91c.08,1.25.76,2.38,1.82,3.05"/>
  </g>
  <g id="LWPOLYLINE8" data-name="LWPOLYLINE">
    <polyline class="st0" points="1592.91 409.44 1592.36 409.02 1591.81 408.74 1591.28 408.59 1590.78 408.58 1590.32 408.72 1589.9 408.99 1589.53 409.4 1589.22 409.93"/>
  </g>
  <g id="ARC16" data-name="ARC">
    <path class="st0" d="M1654.43,391.68c-.6-.65-1.49-.95-2.36-.81"/>
  </g>
  <g id="LWPOLYLINE9" data-name="LWPOLYLINE">
    <polyline class="st0" points="1592.91 413.13 1592.64 412.92 1592.36 412.78 1592.1 412.71 1591.85 412.7 1591.62 412.77 1591.41 412.91 1591.22 413.11 1591.07 413.38"/>
  </g>
  <g id="LINE31" data-name="LINE">
    <line class="st0" x1="1578.09" y1="441.07" x2="1591.07" y2="413.38"/>
  </g>
  <g id="LINE32" data-name="LINE">
    <line class="st0" x1="1576.25" y1="437.63" x2="1589.22" y2="409.93"/>
  </g>
  <g id="LWPOLYLINE10" data-name="LWPOLYLINE">
    <polyline class="st0" points="1578.09 441.07 1577.63 442.48 1577.67 443.7 1578.19 444.68 1579.18 445.39 1580.61 445.79 1582.4 445.88 1584.51 445.65 1586.84 445.1"/>
  </g>
  <g id="LINE33" data-name="LINE">
    <line class="st0" x1="1619.08" y1="435.79" x2="1586.84" y2="445.1"/>
  </g>
  <g id="LINE34" data-name="LINE">
    <line class="st0" x1="1599.25" y1="418.62" x2="1595.01" y2="427.67"/>
  </g>
  <g id="LWPOLYLINE11" data-name="LWPOLYLINE">
    <polyline class="st0" points="1597.64 428.87 1596.94 429.04 1596.31 429.11 1595.77 429.08 1595.34 428.96 1595.04 428.75 1594.89 428.45 1594.88 428.09 1595.01 427.67"/>
  </g>
  <g id="LINE35" data-name="LINE">
    <line class="st0" x1="1605.64" y1="426.57" x2="1597.64" y2="428.87"/>
  </g>
  <g id="LWPOLYLINE12" data-name="LWPOLYLINE">
    <polyline class="st0" points="1608.26 427.77 1608.4 427.35 1608.39 426.98 1608.23 426.69 1607.93 426.48 1607.51 426.36 1606.97 426.33 1606.34 426.4 1605.64 426.57"/>
  </g>
  <g id="LINE36" data-name="LINE">
    <line class="st0" x1="1608.26" y1="427.77" x2="1606.49" y2="431.56"/>
  </g>
  <g id="LWPOLYLINE13" data-name="LWPOLYLINE">
    <polyline class="st0" points="1608.24 432.37 1607.77 432.48 1607.35 432.53 1606.99 432.51 1606.7 432.43 1606.51 432.29 1606.4 432.09 1606.39 431.85 1606.49 431.56"/>
  </g>
  <g id="LINE37" data-name="LINE">
    <line class="st0" x1="1608.24" y1="432.37" x2="1609.47" y2="432.01"/>
  </g>
  <g id="ARC17" data-name="ARC">
    <path class="st0" d="M1609.47,432.01c1.18-.32,2.23-1,3.01-1.95"/>
  </g>
  <g id="LINE38" data-name="LINE">
    <line class="st0" x1="1596.1" y1="425.34" x2="1603.79" y2="423.12"/>
  </g>
  <g id="ARC18" data-name="ARC">
    <path class="st0" d="M1576.25,437.63c-.59.95-.67,2.13-.22,3.16"/>
  </g>
  <g id="LINE39" data-name="LINE">
    <line class="st0" x1="1603.79" y1="423.12" x2="1604.3" y2="422.99"/>
  </g>
  <g id="ARC19" data-name="ARC">
    <path class="st0" d="M1607.94,428.47c.6-.21,1.16-.51,1.68-.88"/>
  </g>
  <g id="LINE40" data-name="LINE">
    <line class="st0" x1="1663.62" y1="535.79" x2="1663.34" y2="535.87"/>
  </g>
  <g id="LINE41" data-name="LINE">
    <line class="st0" x1="1709.76" y1="522.47" x2="1709.48" y2="522.55"/>
  </g>
  <g id="LWPOLYLINE14" data-name="LWPOLYLINE">
    <polyline class="st1" points="1637.83 408.21 1636.8 407.59 1635.41 407.19 1633.84 407.05 1632.26 407.19 1630.87 407.59 1629.84 408.21 1629.29 408.96 1629.29 409.76 1629.84 410.51"/>
  </g>
  <g id="LINE42" data-name="LINE">
    <line class="st1" x1="1629.84" y1="410.51" x2="1644.04" y2="422.82"/>
  </g>
  <g id="LWPOLYLINE15" data-name="LWPOLYLINE">
    <polyline class="st1" points="1652.04 420.51 1652.59 421.26 1652.59 422.06 1652.04 422.82 1651.01 423.43 1649.62 423.83 1648.04 423.97 1646.46 423.83 1645.07 423.43 1644.04 422.82"/>
  </g>
  <g id="LINE43" data-name="LINE">
    <line class="st1" x1="1652.04" y1="420.51" x2="1637.83" y2="408.21"/>
  </g>
</svg>